<svg width="1675" height="727" viewBox="0 0 1675 727" fill="none" xmlns="http://www.w3.org/2000/svg">
<g style="mix-blend-mode:plus-lighter" opacity="0.7">
<path d="M450.069 374.615C450.069 374.615 449.948 374.686 449.983 374.747L324.172 699.211L345.107 298.566L345.176 297.703L403.069 305.989C449.729 313.357 464.807 336.243 450.008 374.65L450.069 374.615Z" fill="url(#paint0_linear_141_2352)" fill-opacity="0.015"/>
<path d="M450.041 374.566C464.785 336.209 449.695 313.351 403.069 305.989L345.424 297.739L450.041 374.566ZM450.041 374.566L449.944 374.399L449.944 374.399L450.041 374.566ZM449.778 374.552C449.768 374.567 449.759 374.585 449.751 374.604C449.742 374.625 449.735 374.65 449.73 374.676L449.521 375.221L449.535 375.213L324.503 697.665L345.356 298.586L345.357 298.579L345.404 297.988L403.03 306.236C403.031 306.236 403.032 306.236 403.033 306.237C426.338 309.917 441.685 317.463 449.379 328.82C457.064 340.164 457.161 355.388 449.778 374.552ZM345.107 298.566L345.156 297.953L324.214 698.411L345.107 298.566ZM449.88 375.013L324.462 698.464L449.88 375.013Z" stroke="url(#paint1_diamond_141_2352)" stroke-opacity="0.3" stroke-width="0.5"/>
<path d="M126.306 175.187L7.11278e-05 248.11L403.089 305.879C449.809 313.212 464.862 336.195 449.942 374.673L472.688 316.045L476.738 305.644L487.384 278.139L483.076 289.241C497.936 250.798 483.015 227.904 436.573 220.493L436.223 220.448L124.787 176.072L126.317 175.189L126.306 175.187Z" fill="url(#paint2_linear_141_2352)" fill-opacity="0.03"/>
<path d="M0.751085 247.965L124.827 176.33L436.188 220.696L436.192 220.696L436.534 220.74C436.535 220.74 436.536 220.74 436.538 220.74C459.733 224.442 474.986 232.002 482.605 243.369C490.218 254.727 490.259 269.965 482.843 289.151C482.843 289.151 482.843 289.151 482.843 289.151L482.852 289.155L476.505 305.554L476.505 305.554L472.456 315.954L472.455 315.954L453.366 365.156C457.416 350.285 456.3 338.036 449.838 328.456C442.041 316.898 426.511 309.302 403.128 305.632L403.124 305.632L0.751085 247.965Z" stroke="url(#paint3_diamond_141_2352)" stroke-opacity="0.24" stroke-width="0.5"/>
<path d="M124.786 176.072L251.092 103.149L492.374 137.103C516.275 140.581 530.931 165.685 522.221 188.237L509.487 221.093L505.821 230.613L483.075 289.241C497.934 250.798 483.013 227.903 436.572 220.492L436.222 220.448L124.786 176.072Z" fill="url(#paint4_linear_141_2352)" fill-opacity="0.03"/>
<path d="M505.588 230.523L486.469 279.8C490.529 264.917 489.439 252.67 483.019 243.091C475.282 231.548 459.855 223.955 436.611 220.246L436.611 220.245L436.603 220.245L436.257 220.2L436.253 220.2L125.538 175.926L251.142 103.408L492.338 137.351C516.079 140.805 530.64 165.745 521.988 188.147L509.254 221.002L509.254 221.003L505.588 230.523L505.588 230.523Z" stroke="url(#paint5_diamond_141_2352)" stroke-opacity="0.2" stroke-width="0.5"/>
<path d="M450.069 374.615C450.069 374.615 449.948 374.686 449.983 374.747L324.172 699.211L345.107 298.566L345.176 297.703L403.069 305.989C449.729 313.357 464.807 336.243 450.008 374.65L450.069 374.615Z" fill="url(#paint6_linear_141_2352)" fill-opacity="0.015"/>
<path d="M450.041 374.566C464.785 336.209 449.695 313.351 403.069 305.989L345.424 297.739L450.041 374.566ZM450.041 374.566L449.944 374.399L449.944 374.399L450.041 374.566ZM449.778 374.552C449.768 374.567 449.759 374.585 449.751 374.604C449.742 374.625 449.735 374.65 449.73 374.676L449.521 375.221L449.535 375.213L324.503 697.665L345.356 298.586L345.357 298.579L345.404 297.988L403.03 306.236C403.031 306.236 403.032 306.236 403.033 306.237C426.338 309.917 441.685 317.463 449.379 328.82C457.064 340.164 457.161 355.388 449.778 374.552ZM345.107 298.566L345.156 297.953L324.214 698.411L345.107 298.566ZM449.88 375.013L324.462 698.464L449.88 375.013Z" stroke="url(#paint7_diamond_141_2352)" stroke-opacity="0.3" stroke-width="0.5"/>
<path d="M126.306 175.187L7.11278e-05 248.11L403.089 305.879C449.809 313.212 464.862 336.195 449.942 374.673L472.688 316.045L476.738 305.644L487.384 278.139L483.076 289.241C497.936 250.798 483.015 227.904 436.573 220.493L436.223 220.448L124.787 176.072L126.317 175.189L126.306 175.187Z" fill="url(#paint8_linear_141_2352)" fill-opacity="0.03"/>
<path d="M0.751085 247.965L124.827 176.33L436.188 220.696L436.192 220.696L436.534 220.74C436.535 220.74 436.536 220.74 436.538 220.74C459.733 224.442 474.986 232.002 482.605 243.369C490.218 254.727 490.259 269.965 482.843 289.151C482.843 289.151 482.843 289.151 482.843 289.151L482.852 289.155L476.505 305.554L476.505 305.554L472.456 315.954L472.455 315.954L453.366 365.156C457.416 350.285 456.3 338.036 449.838 328.456C442.041 316.898 426.511 309.302 403.128 305.632L403.124 305.632L0.751085 247.965Z" stroke="url(#paint9_diamond_141_2352)" stroke-opacity="0.24" stroke-width="0.5"/>
<path d="M124.786 176.072L251.092 103.149L492.374 137.103C516.275 140.581 530.931 165.685 522.221 188.237L509.487 221.093L505.821 230.613L483.075 289.241C497.934 250.798 483.013 227.903 436.572 220.492L436.222 220.448L124.786 176.072Z" fill="url(#paint10_linear_141_2352)" fill-opacity="0.03"/>
<path d="M505.588 230.523L486.469 279.8C490.529 264.917 489.439 252.67 483.019 243.091C475.282 231.548 459.855 223.955 436.611 220.246L436.611 220.245L436.603 220.245L436.257 220.2L436.253 220.2L125.538 175.926L251.142 103.408L492.338 137.351C516.079 140.805 530.64 165.745 521.988 188.147L509.254 221.002L509.254 221.003L505.588 230.523L505.588 230.523Z" stroke="url(#paint11_diamond_141_2352)" stroke-opacity="0.2" stroke-width="0.5"/>
</g>
<g style="mix-blend-mode:plus-lighter" opacity="0.7">
<path d="M1224.16 374.615C1224.16 374.615 1224.28 374.686 1224.25 374.747L1350.06 699.211L1329.12 298.566L1329.05 297.703L1271.16 305.989C1224.5 313.357 1209.42 336.243 1224.22 374.65L1224.16 374.615Z" fill="url(#paint12_linear_141_2352)" fill-opacity="0.015"/>
<path d="M1224.19 374.566C1209.44 336.209 1224.53 313.351 1271.16 305.989L1328.8 297.739L1224.19 374.566ZM1224.19 374.566L1224.29 374.399L1224.29 374.399L1224.19 374.566ZM1224.45 374.552C1224.46 374.567 1224.47 374.585 1224.48 374.604C1224.49 374.625 1224.49 374.65 1224.5 374.676L1224.71 375.221L1224.69 375.213L1349.73 697.665L1328.87 298.586L1328.87 298.579L1328.82 297.988L1271.2 306.236C1271.2 306.236 1271.2 306.236 1271.2 306.237C1247.89 309.917 1232.54 317.463 1224.85 328.82C1217.17 340.164 1217.07 355.388 1224.45 374.552ZM1329.12 298.566L1329.07 297.953L1350.02 698.411L1329.12 298.566ZM1224.35 375.013L1349.77 698.464L1224.35 375.013Z" stroke="url(#paint13_diamond_141_2352)" stroke-opacity="0.3" stroke-width="0.5"/>
<path d="M1547.92 175.187L1674.23 248.11L1271.14 305.879C1224.42 313.212 1209.37 336.195 1224.29 374.673L1201.54 316.045L1197.49 305.644L1186.85 278.139L1191.15 289.241C1176.29 250.798 1191.21 227.904 1237.66 220.493L1238.01 220.448L1549.44 176.072L1547.91 175.189L1547.92 175.187Z" fill="url(#paint14_linear_141_2352)" fill-opacity="0.03"/>
<path d="M1673.48 247.965L1549.4 176.33L1238.04 220.696L1238.04 220.696L1237.7 220.74C1237.69 220.74 1237.69 220.74 1237.69 220.74C1214.5 224.442 1199.24 232.002 1191.62 243.369C1184.01 254.727 1183.97 269.965 1191.39 289.151C1191.39 289.151 1191.39 289.151 1191.39 289.151L1191.38 289.155L1197.72 305.554L1197.72 305.554L1201.77 315.954L1201.77 315.954L1220.86 365.156C1216.81 350.285 1217.93 338.036 1224.39 328.456C1232.19 316.898 1247.72 309.302 1271.1 305.632L1271.1 305.632L1673.48 247.965Z" stroke="url(#paint15_diamond_141_2352)" stroke-opacity="0.24" stroke-width="0.5"/>
<path d="M1549.44 176.072L1423.14 103.149L1181.85 137.103C1157.95 140.581 1143.3 165.685 1152.01 188.237L1164.74 221.093L1168.41 230.613L1191.15 289.241C1176.3 250.798 1191.22 227.903 1237.66 220.492L1238.01 220.448L1549.44 176.072Z" fill="url(#paint16_linear_141_2352)" fill-opacity="0.03"/>
<path d="M1168.64 230.523L1187.76 279.8C1183.7 264.917 1184.79 252.67 1191.21 243.091C1198.95 231.548 1214.37 223.955 1237.62 220.246L1237.62 220.245L1237.63 220.245L1237.97 220.2L1237.98 220.2L1548.69 175.926L1423.09 103.408L1181.89 137.351C1158.15 140.805 1143.59 165.745 1152.24 188.147L1164.98 221.002L1164.98 221.003L1168.64 230.523L1168.64 230.523Z" stroke="url(#paint17_diamond_141_2352)" stroke-opacity="0.2" stroke-width="0.5"/>
<path d="M1224.16 374.615C1224.16 374.615 1224.28 374.686 1224.25 374.747L1350.06 699.211L1329.12 298.566L1329.05 297.703L1271.16 305.989C1224.5 313.357 1209.42 336.243 1224.22 374.65L1224.16 374.615Z" fill="url(#paint18_linear_141_2352)" fill-opacity="0.015"/>
<path d="M1224.19 374.566C1209.44 336.209 1224.53 313.351 1271.16 305.989L1328.8 297.739L1224.19 374.566ZM1224.19 374.566L1224.29 374.399L1224.29 374.399L1224.19 374.566ZM1224.45 374.552C1224.46 374.567 1224.47 374.585 1224.48 374.604C1224.49 374.625 1224.49 374.65 1224.5 374.676L1224.71 375.221L1224.69 375.213L1349.73 697.665L1328.87 298.586L1328.87 298.579L1328.82 297.988L1271.2 306.236C1271.2 306.236 1271.2 306.236 1271.2 306.237C1247.89 309.917 1232.54 317.463 1224.85 328.82C1217.17 340.164 1217.07 355.388 1224.45 374.552ZM1329.12 298.566L1329.07 297.953L1350.02 698.411L1329.12 298.566ZM1224.35 375.013L1349.77 698.464L1224.35 375.013Z" stroke="url(#paint19_diamond_141_2352)" stroke-opacity="0.3" stroke-width="0.5"/>
<path d="M1547.92 175.187L1674.23 248.11L1271.14 305.879C1224.42 313.212 1209.37 336.195 1224.29 374.673L1201.54 316.045L1197.49 305.644L1186.85 278.139L1191.15 289.241C1176.29 250.798 1191.21 227.904 1237.66 220.493L1238.01 220.448L1549.44 176.072L1547.91 175.189L1547.92 175.187Z" fill="url(#paint20_linear_141_2352)" fill-opacity="0.03"/>
<path d="M1673.48 247.965L1549.4 176.33L1238.04 220.696L1238.04 220.696L1237.7 220.74C1237.69 220.74 1237.69 220.74 1237.69 220.74C1214.5 224.442 1199.24 232.002 1191.62 243.369C1184.01 254.727 1183.97 269.965 1191.39 289.151C1191.39 289.151 1191.39 289.151 1191.39 289.151L1191.38 289.155L1197.72 305.554L1197.72 305.554L1201.77 315.954L1201.77 315.954L1220.86 365.156C1216.81 350.285 1217.93 338.036 1224.39 328.456C1232.19 316.898 1247.72 309.302 1271.1 305.632L1271.1 305.632L1673.48 247.965Z" stroke="url(#paint21_diamond_141_2352)" stroke-opacity="0.24" stroke-width="0.5"/>
<path d="M1549.44 176.072L1423.14 103.149L1181.85 137.103C1157.95 140.581 1143.3 165.685 1152.01 188.237L1164.74 221.093L1168.41 230.613L1191.15 289.241C1176.3 250.798 1191.22 227.903 1237.66 220.492L1238.01 220.448L1549.44 176.072Z" fill="url(#paint22_linear_141_2352)" fill-opacity="0.03"/>
<path d="M1168.64 230.523L1187.76 279.8C1183.7 264.917 1184.79 252.67 1191.21 243.091C1198.95 231.548 1214.37 223.955 1237.62 220.246L1237.62 220.245L1237.63 220.245L1237.97 220.2L1237.98 220.2L1548.69 175.926L1423.09 103.408L1181.89 137.351C1158.15 140.805 1143.59 165.745 1152.24 188.147L1164.98 221.002L1164.98 221.003L1168.64 230.523L1168.64 230.523Z" stroke="url(#paint23_diamond_141_2352)" stroke-opacity="0.2" stroke-width="0.5"/>
</g>
<defs>
<linearGradient id="paint0_linear_141_2352" x1="345.046" y1="582.304" x2="393.111" y2="327.136" gradientUnits="userSpaceOnUse">
<stop stop-color="white" stop-opacity="0"/>
<stop offset="1" stop-color="white"/>
</linearGradient>
<radialGradient id="paint1_diamond_141_2352" cx="0" cy="0" r="1" gradientUnits="userSpaceOnUse" gradientTransform="translate(333.57 458.405) rotate(94.3354) scale(153.687 156.731)">
<stop stop-color="white" stop-opacity="0.5"/>
<stop offset="1" stop-color="white" stop-opacity="0"/>
</radialGradient>
<linearGradient id="paint2_linear_141_2352" x1="153.658" y1="229.783" x2="421.07" y2="185.577" gradientUnits="userSpaceOnUse">
<stop stop-color="white" stop-opacity="0"/>
<stop offset="1" stop-color="white" stop-opacity="0.5"/>
</linearGradient>
<radialGradient id="paint3_diamond_141_2352" cx="0" cy="0" r="1" gradientUnits="userSpaceOnUse" gradientTransform="translate(310.481 219.943) rotate(-172.021) scale(229.601 230.116)">
<stop stop-color="white" stop-opacity="0.5"/>
<stop offset="1" stop-color="white" stop-opacity="0"/>
</radialGradient>
<linearGradient id="paint4_linear_141_2352" x1="229.181" y1="171.272" x2="470.579" y2="117.709" gradientUnits="userSpaceOnUse">
<stop stop-color="white" stop-opacity="0"/>
<stop offset="1" stop-color="white"/>
</linearGradient>
<radialGradient id="paint5_diamond_141_2352" cx="0" cy="0" r="1" gradientUnits="userSpaceOnUse" gradientTransform="translate(408.039 125.532) rotate(-170.986) scale(212.401 212.401)">
<stop offset="0.0712031" stop-color="white" stop-opacity="0.5"/>
<stop offset="1" stop-color="white" stop-opacity="0"/>
</radialGradient>
<linearGradient id="paint6_linear_141_2352" x1="345.046" y1="582.304" x2="393.111" y2="327.136" gradientUnits="userSpaceOnUse">
<stop stop-color="white" stop-opacity="0"/>
<stop offset="1" stop-color="white"/>
</linearGradient>
<radialGradient id="paint7_diamond_141_2352" cx="0" cy="0" r="1" gradientUnits="userSpaceOnUse" gradientTransform="translate(333.57 458.405) rotate(94.3354) scale(153.687 156.731)">
<stop stop-color="white" stop-opacity="0.5"/>
<stop offset="1" stop-color="white" stop-opacity="0"/>
</radialGradient>
<linearGradient id="paint8_linear_141_2352" x1="153.658" y1="229.783" x2="421.07" y2="185.577" gradientUnits="userSpaceOnUse">
<stop stop-color="white" stop-opacity="0"/>
<stop offset="1" stop-color="white" stop-opacity="0.5"/>
</linearGradient>
<radialGradient id="paint9_diamond_141_2352" cx="0" cy="0" r="1" gradientUnits="userSpaceOnUse" gradientTransform="translate(310.481 219.943) rotate(-172.021) scale(229.601 230.116)">
<stop stop-color="white" stop-opacity="0.5"/>
<stop offset="1" stop-color="white" stop-opacity="0"/>
</radialGradient>
<linearGradient id="paint10_linear_141_2352" x1="229.181" y1="171.272" x2="470.579" y2="117.709" gradientUnits="userSpaceOnUse">
<stop stop-color="white" stop-opacity="0"/>
<stop offset="1" stop-color="white"/>
</linearGradient>
<radialGradient id="paint11_diamond_141_2352" cx="0" cy="0" r="1" gradientUnits="userSpaceOnUse" gradientTransform="translate(408.039 125.532) rotate(-170.986) scale(212.401 212.401)">
<stop offset="0.0712031" stop-color="white" stop-opacity="0.5"/>
<stop offset="1" stop-color="white" stop-opacity="0"/>
</radialGradient>
<linearGradient id="paint12_linear_141_2352" x1="1329.18" y1="582.304" x2="1281.12" y2="327.136" gradientUnits="userSpaceOnUse">
<stop stop-color="white" stop-opacity="0"/>
<stop offset="1" stop-color="white"/>
</linearGradient>
<radialGradient id="paint13_diamond_141_2352" cx="0" cy="0" r="1" gradientUnits="userSpaceOnUse" gradientTransform="translate(1340.66 458.405) rotate(85.6646) scale(153.687 156.731)">
<stop stop-color="white" stop-opacity="0.5"/>
<stop offset="1" stop-color="white" stop-opacity="0"/>
</radialGradient>
<linearGradient id="paint14_linear_141_2352" x1="1520.57" y1="229.783" x2="1253.16" y2="185.577" gradientUnits="userSpaceOnUse">
<stop stop-color="white" stop-opacity="0"/>
<stop offset="1" stop-color="white" stop-opacity="0.5"/>
</linearGradient>
<radialGradient id="paint15_diamond_141_2352" cx="0" cy="0" r="1" gradientUnits="userSpaceOnUse" gradientTransform="translate(1363.75 219.943) rotate(-7.97922) scale(229.601 230.116)">
<stop stop-color="white" stop-opacity="0.5"/>
<stop offset="1" stop-color="white" stop-opacity="0"/>
</radialGradient>
<linearGradient id="paint16_linear_141_2352" x1="1445.05" y1="171.272" x2="1203.65" y2="117.709" gradientUnits="userSpaceOnUse">
<stop stop-color="white" stop-opacity="0"/>
<stop offset="1" stop-color="white"/>
</linearGradient>
<radialGradient id="paint17_diamond_141_2352" cx="0" cy="0" r="1" gradientUnits="userSpaceOnUse" gradientTransform="translate(1266.19 125.532) rotate(-9.01428) scale(212.401 212.401)">
<stop offset="0.0712031" stop-color="white" stop-opacity="0.5"/>
<stop offset="1" stop-color="white" stop-opacity="0"/>
</radialGradient>
<linearGradient id="paint18_linear_141_2352" x1="1329.18" y1="582.304" x2="1281.12" y2="327.136" gradientUnits="userSpaceOnUse">
<stop stop-color="white" stop-opacity="0"/>
<stop offset="1" stop-color="white"/>
</linearGradient>
<radialGradient id="paint19_diamond_141_2352" cx="0" cy="0" r="1" gradientUnits="userSpaceOnUse" gradientTransform="translate(1340.66 458.405) rotate(85.6646) scale(153.687 156.731)">
<stop stop-color="white" stop-opacity="0.5"/>
<stop offset="1" stop-color="white" stop-opacity="0"/>
</radialGradient>
<linearGradient id="paint20_linear_141_2352" x1="1520.57" y1="229.783" x2="1253.16" y2="185.577" gradientUnits="userSpaceOnUse">
<stop stop-color="white" stop-opacity="0"/>
<stop offset="1" stop-color="white" stop-opacity="0.5"/>
</linearGradient>
<radialGradient id="paint21_diamond_141_2352" cx="0" cy="0" r="1" gradientUnits="userSpaceOnUse" gradientTransform="translate(1363.75 219.943) rotate(-7.97922) scale(229.601 230.116)">
<stop stop-color="white" stop-opacity="0.5"/>
<stop offset="1" stop-color="white" stop-opacity="0"/>
</radialGradient>
<linearGradient id="paint22_linear_141_2352" x1="1445.05" y1="171.272" x2="1203.65" y2="117.709" gradientUnits="userSpaceOnUse">
<stop stop-color="white" stop-opacity="0"/>
<stop offset="1" stop-color="white"/>
</linearGradient>
<radialGradient id="paint23_diamond_141_2352" cx="0" cy="0" r="1" gradientUnits="userSpaceOnUse" gradientTransform="translate(1266.19 125.532) rotate(-9.01428) scale(212.401 212.401)">
<stop offset="0.0712031" stop-color="white" stop-opacity="0.5"/>
<stop offset="1" stop-color="white" stop-opacity="0"/>
</radialGradient>
</defs>
</svg>
