<svg width="1200" height="427" viewBox="0 0 1200 427" fill="none" xmlns="http://www.w3.org/2000/svg">
<g opacity="0.2">
<g opacity="0.4" filter="url(#filter0_f_62_1077)">
<g filter="url(#filter1_f_62_1077)">
<path d="M109.877 416.286C-78.874 397.274 -157.464 509.382 -65.6406 666.687C26.1827 823.992 253.64 966.925 442.398 985.937C631.155 1004.95 709.737 892.84 617.915 735.535C526.093 578.23 298.637 435.298 109.877 416.286Z" fill="#FF33BA"/>
</g>
<g filter="url(#filter2_f_62_1077)">
<path d="M109.877 416.286C-78.874 397.274 -157.464 509.382 -65.6406 666.687C26.1827 823.992 253.64 966.925 442.398 985.937C631.155 1004.95 709.737 892.84 617.915 735.535C526.093 578.23 298.637 435.298 109.877 416.286Z" fill="#FF33BA"/>
</g>
<g filter="url(#filter3_f_62_1077)">
<path d="M41.8185 214.517C-46.2374 205.648 -82.8992 257.947 -40.0664 331.329C2.78002 404.713 108.876 471.392 196.939 480.261C284.995 489.13 321.654 436.831 278.819 363.447C235.983 290.064 129.874 223.386 41.8185 214.517Z" fill="#5FA8FF"/>
</g>
<g filter="url(#filter4_f_62_1077)">
<path d="M699.824 289.782C438.584 247.711 305.839 384.073 403.328 594.355C500.816 804.636 791.625 1009.21 1052.86 1051.28C1314.1 1093.35 1446.85 956.992 1349.36 746.71C1251.87 536.427 961.064 331.854 699.824 289.782Z" fill="#5F57FF"/>
</g>
<g opacity="0.6" filter="url(#filter5_f_62_1077)">
<path d="M699.824 289.782C438.584 247.711 305.839 384.073 403.328 594.355C500.818 804.636 791.625 1009.21 1052.86 1051.28C1314.1 1093.35 1446.85 956.992 1349.36 746.71C1251.87 536.427 961.064 331.854 699.824 289.782Z" fill="#5F57FF"/>
</g>
</g>
<g opacity="0.4">
<g opacity="0.4" filter="url(#filter6_f_62_1077)">
<path d="M1108.7 658.132L1390.76 755.735L1249.73 560.53L720.868 194.518L438.808 96.915L579.838 292.122L1108.7 658.132Z" fill="url(#paint0_linear_62_1077)"/>
</g>
<g opacity="0.3" filter="url(#filter7_f_62_1077)">
<path d="M396.652 455.481L223.703 601.231L511.951 513.781L1088.45 222.28L1261.4 76.5286L973.149 163.979L396.652 455.481Z" fill="url(#paint1_linear_62_1077)"/>
</g>
<g opacity="0.3" filter="url(#filter8_f_62_1077)">
<path d="M1434.34 397.173L1607.29 251.418L1319.04 338.871L742.547 630.385L569.599 776.141L857.846 688.688L1434.34 397.173Z" fill="url(#paint2_linear_62_1077)"/>
</g>
</g>
<g style="mix-blend-mode:overlay" filter="url(#filter9_f_62_1077)">
<path d="M987.506 268.722L616.696 -127.727L939.139 328.19L1025.2 434.006L1331.52 751.166L1073.57 374.539L987.506 268.722Z" fill="#2F0935"/>
</g>
<g style="mix-blend-mode:overlay" filter="url(#filter10_f_62_1077)">
<path d="M316.63 321.005L-54.1767 -75.4435L268.265 380.474L502.529 668.506L808.851 985.666L550.896 609.039L316.63 321.005Z" fill="#2F0935"/>
</g>
<g style="mix-blend-mode:overlay" filter="url(#filter11_f_62_1077)">
<path d="M823.332 721.629L452.523 325.18L774.967 781.096L861.029 886.914L1167.35 1204.07L909.396 827.445L823.332 721.629Z" fill="url(#paint3_linear_62_1077)"/>
</g>
<g style="mix-blend-mode:overlay" filter="url(#filter12_f_62_1077)">
<path d="M297.208 612.654L663.196 947.774L344.945 562.387L259.999 472.938L-42.3328 204.842L212.262 523.207L297.208 612.654Z" fill="#2F0935"/>
</g>
<g style="mix-blend-mode:overlay" filter="url(#filter13_f_62_1077)">
<path d="M491.848 444.786L857.837 779.907L539.585 394.519L285.863 127.347L-16.4697 -140.749L238.124 177.614L491.848 444.786Z" fill="#2F0935"/>
</g>
<g style="mix-blend-mode:overlay" filter="url(#filter14_f_62_1077)">
<path d="M797.538 393.861L1163.53 728.981L845.276 343.593L614.056 100.117L311.719 -167.979L566.319 150.386L797.538 393.861Z" fill="#2F0935"/>
</g>
<g style="mix-blend-mode:overlay" filter="url(#filter15_f_62_1077)">
<path d="M1059.02 296.385L1425.01 631.504L1106.76 246.116L1021.81 156.669L719.474 -111.427L974.075 206.936L1059.02 296.385Z" fill="url(#paint4_linear_62_1077)"/>
</g>
</g>
<defs>
<filter id="filter0_f_62_1077" x="-404.02" y="-86.4633" width="2085.38" height="1445.37" filterUnits="userSpaceOnUse" color-interpolation-filters="sRGB">
<feFlood flood-opacity="0" result="BackgroundImageFix"/>
<feBlend mode="normal" in="SourceGraphic" in2="BackgroundImageFix" result="shape"/>
<feGaussianBlur stdDeviation="150" result="effect1_foregroundBlur_62_1077"/>
</filter>
<filter id="filter1_f_62_1077" x="-396.054" y="122.15" width="1344.38" height="1157.92" filterUnits="userSpaceOnUse" color-interpolation-filters="sRGB">
<feFlood flood-opacity="0" result="BackgroundImageFix"/>
<feBlend mode="normal" in="SourceGraphic" in2="BackgroundImageFix" result="shape"/>
<feGaussianBlur stdDeviation="146.017" result="effect1_foregroundBlur_62_1077"/>
</filter>
<filter id="filter2_f_62_1077" x="-396.054" y="122.15" width="1344.38" height="1157.92" filterUnits="userSpaceOnUse" color-interpolation-filters="sRGB">
<feFlood flood-opacity="0" result="BackgroundImageFix"/>
<feBlend mode="normal" in="SourceGraphic" in2="BackgroundImageFix" result="shape"/>
<feGaussianBlur stdDeviation="146.017" result="effect1_foregroundBlur_62_1077"/>
</filter>
<filter id="filter3_f_62_1077" x="-250.293" y="21.2127" width="739.339" height="652.352" filterUnits="userSpaceOnUse" color-interpolation-filters="sRGB">
<feFlood flood-opacity="0" result="BackgroundImageFix"/>
<feBlend mode="normal" in="SourceGraphic" in2="BackgroundImageFix" result="shape"/>
<feGaussianBlur stdDeviation="96.162" result="effect1_foregroundBlur_62_1077"/>
</filter>
<filter id="filter4_f_62_1077" x="171.789" y="82.6237" width="1409.11" height="1175.82" filterUnits="userSpaceOnUse" color-interpolation-filters="sRGB">
<feFlood flood-opacity="0" result="BackgroundImageFix"/>
<feBlend mode="normal" in="SourceGraphic" in2="BackgroundImageFix" result="shape"/>
<feGaussianBlur stdDeviation="99.769" result="effect1_foregroundBlur_62_1077"/>
</filter>
<filter id="filter5_f_62_1077" x="171.789" y="82.6237" width="1409.11" height="1175.82" filterUnits="userSpaceOnUse" color-interpolation-filters="sRGB">
<feFlood flood-opacity="0" result="BackgroundImageFix"/>
<feBlend mode="normal" in="SourceGraphic" in2="BackgroundImageFix" result="shape"/>
<feGaussianBlur stdDeviation="99.769" result="effect1_foregroundBlur_62_1077"/>
</filter>
<filter id="filter6_f_62_1077" x="278.808" y="-63.085" width="1271.95" height="978.82" filterUnits="userSpaceOnUse" color-interpolation-filters="sRGB">
<feFlood flood-opacity="0" result="BackgroundImageFix"/>
<feBlend mode="normal" in="SourceGraphic" in2="BackgroundImageFix" result="shape"/>
<feGaussianBlur stdDeviation="80" result="effect1_foregroundBlur_62_1077"/>
</filter>
<filter id="filter7_f_62_1077" x="111.703" y="-35.4714" width="1261.7" height="748.703" filterUnits="userSpaceOnUse" color-interpolation-filters="sRGB">
<feFlood flood-opacity="0" result="BackgroundImageFix"/>
<feBlend mode="normal" in="SourceGraphic" in2="BackgroundImageFix" result="shape"/>
<feGaussianBlur stdDeviation="56" result="effect1_foregroundBlur_62_1077"/>
</filter>
<filter id="filter8_f_62_1077" x="457.599" y="139.418" width="1261.69" height="748.723" filterUnits="userSpaceOnUse" color-interpolation-filters="sRGB">
<feFlood flood-opacity="0" result="BackgroundImageFix"/>
<feBlend mode="normal" in="SourceGraphic" in2="BackgroundImageFix" result="shape"/>
<feGaussianBlur stdDeviation="56" result="effect1_foregroundBlur_62_1077"/>
</filter>
<filter id="filter9_f_62_1077" x="562.696" y="-181.727" width="822.827" height="986.892" filterUnits="userSpaceOnUse" color-interpolation-filters="sRGB">
<feFlood flood-opacity="0" result="BackgroundImageFix"/>
<feBlend mode="normal" in="SourceGraphic" in2="BackgroundImageFix" result="shape"/>
<feGaussianBlur stdDeviation="27" result="effect1_foregroundBlur_62_1077"/>
</filter>
<filter id="filter10_f_62_1077" x="-108.177" y="-129.443" width="971.027" height="1169.11" filterUnits="userSpaceOnUse" color-interpolation-filters="sRGB">
<feFlood flood-opacity="0" result="BackgroundImageFix"/>
<feBlend mode="normal" in="SourceGraphic" in2="BackgroundImageFix" result="shape"/>
<feGaussianBlur stdDeviation="27" result="effect1_foregroundBlur_62_1077"/>
</filter>
<filter id="filter11_f_62_1077" x="398.523" y="271.18" width="822.827" height="986.892" filterUnits="userSpaceOnUse" color-interpolation-filters="sRGB">
<feFlood flood-opacity="0" result="BackgroundImageFix"/>
<feBlend mode="normal" in="SourceGraphic" in2="BackgroundImageFix" result="shape"/>
<feGaussianBlur stdDeviation="27" result="effect1_foregroundBlur_62_1077"/>
</filter>
<filter id="filter12_f_62_1077" x="-114.333" y="132.842" width="849.529" height="886.932" filterUnits="userSpaceOnUse" color-interpolation-filters="sRGB">
<feFlood flood-opacity="0" result="BackgroundImageFix"/>
<feBlend mode="normal" in="SourceGraphic" in2="BackgroundImageFix" result="shape"/>
<feGaussianBlur stdDeviation="36" result="effect1_foregroundBlur_62_1077"/>
</filter>
<filter id="filter13_f_62_1077" x="-88.4697" y="-212.749" width="1018.31" height="1064.66" filterUnits="userSpaceOnUse" color-interpolation-filters="sRGB">
<feFlood flood-opacity="0" result="BackgroundImageFix"/>
<feBlend mode="normal" in="SourceGraphic" in2="BackgroundImageFix" result="shape"/>
<feGaussianBlur stdDeviation="36" result="effect1_foregroundBlur_62_1077"/>
</filter>
<filter id="filter14_f_62_1077" x="239.719" y="-239.979" width="995.808" height="1040.96" filterUnits="userSpaceOnUse" color-interpolation-filters="sRGB">
<feFlood flood-opacity="0" result="BackgroundImageFix"/>
<feBlend mode="normal" in="SourceGraphic" in2="BackgroundImageFix" result="shape"/>
<feGaussianBlur stdDeviation="36" result="effect1_foregroundBlur_62_1077"/>
</filter>
<filter id="filter15_f_62_1077" x="647.474" y="-183.427" width="849.534" height="886.931" filterUnits="userSpaceOnUse" color-interpolation-filters="sRGB">
<feFlood flood-opacity="0" result="BackgroundImageFix"/>
<feBlend mode="normal" in="SourceGraphic" in2="BackgroundImageFix" result="shape"/>
<feGaussianBlur stdDeviation="36" result="effect1_foregroundBlur_62_1077"/>
</filter>
<linearGradient id="paint0_linear_62_1077" x1="579.838" y1="292.122" x2="1026.7" y2="769.362" gradientUnits="userSpaceOnUse">
<stop stop-color="#33CFFF"/>
<stop offset="0.5" stop-color="#116B97"/>
<stop offset="1" stop-color="#33CFFF"/>
</linearGradient>
<linearGradient id="paint1_linear_62_1077" x1="973.149" y1="163.979" x2="820.205" y2="617.693" gradientUnits="userSpaceOnUse">
<stop stop-color="#5F57FF"/>
<stop offset="0.5" stop-color="#116B97"/>
<stop offset="1" stop-color="#33CFFF"/>
</linearGradient>
<linearGradient id="paint2_linear_62_1077" x1="857.845" y1="688.688" x2="1010.8" y2="234.96" gradientUnits="userSpaceOnUse">
<stop stop-color="#5F57FF"/>
<stop offset="0.5" stop-color="#116B97"/>
<stop offset="1" stop-color="#33CFFF"/>
</linearGradient>
<linearGradient id="paint3_linear_62_1077" x1="494.967" y1="377.367" x2="1304.34" y2="1035.65" gradientUnits="userSpaceOnUse">
<stop stop-opacity="0"/>
<stop offset="0.772"/>
</linearGradient>
<linearGradient id="paint4_linear_62_1077" x1="1383.12" y1="587.39" x2="685.228" y2="-75.3667" gradientUnits="userSpaceOnUse">
<stop stop-opacity="0"/>
<stop offset="0.772"/>
</linearGradient>
</defs>
</svg>
