<svg width="20" height="20" viewBox="0 0 20 20" fill="none" xmlns="http://www.w3.org/2000/svg">
<path d="M16.0992 0.25H3.91167C1.47417 0.25 0.253611 1.46694 0.25 3.90083V16.0883C0.25 18.5294 1.47056 19.75 3.91167 19.75H16.0992C18.5367 19.75 19.7536 18.5294 19.75 16.0883V3.90083C19.75 1.46694 18.5331 0.25 16.0992 0.25ZM7.5625 11.8308C7.63956 11.9053 7.70084 11.9945 7.74269 12.0931C7.78455 12.1918 7.80612 12.2978 7.80612 12.405C7.80612 12.5122 7.78455 12.6182 7.74269 12.7169C7.70084 12.8155 7.63956 12.9047 7.5625 12.9792C7.48805 13.0559 7.39873 13.1166 7.3 13.1576C7.20127 13.1985 7.09522 13.2189 6.98833 13.2175C6.8816 13.2179 6.77586 13.197 6.67728 13.1561C6.5787 13.1152 6.48925 13.055 6.41417 12.9792L4.00917 10.5742C3.85806 10.4213 3.77332 10.215 3.77332 10C3.77332 9.78503 3.85806 9.57873 4.00917 9.42583L6.41417 7.02083C6.56819 6.87731 6.77191 6.79918 6.9824 6.80289C7.19289 6.80661 7.39373 6.89188 7.54259 7.04074C7.69145 7.18961 7.77673 7.39044 7.78044 7.60093C7.78415 7.81143 7.70602 8.01514 7.5625 8.16917L5.73167 10L7.5625 11.8308ZM11.8742 5.86167L9.7075 14.5283C9.66265 14.7043 9.56066 14.8604 9.41754 14.9721C9.27442 15.0839 9.09825 15.145 8.91667 15.1458C8.85118 15.144 8.78596 15.1367 8.72167 15.1242C8.51256 15.0714 8.33271 14.9383 8.22115 14.7537C8.1096 14.5691 8.07535 14.348 8.12583 14.1383L10.2925 5.47167C10.3164 5.36606 10.3612 5.26628 10.4241 5.17816C10.487 5.09004 10.5669 5.01535 10.659 4.95846C10.7512 4.90157 10.8537 4.86362 10.9607 4.84683C11.0677 4.83004 11.1769 4.83474 11.2821 4.86067C11.3872 4.88659 11.4861 4.93322 11.573 4.99781C11.6599 5.06241 11.7331 5.14369 11.7882 5.23689C11.8434 5.33009 11.8793 5.43335 11.8941 5.54063C11.9089 5.6479 11.9021 5.75704 11.8742 5.86167ZM15.9908 10.5742L13.5858 12.9792C13.5107 13.055 13.4213 13.1152 13.3227 13.1561C13.2241 13.197 13.1184 13.2179 13.0117 13.2175C12.9048 13.2189 12.7987 13.1985 12.7 13.1576C12.6013 13.1166 12.5119 13.0559 12.4375 12.9792C12.3604 12.9047 12.2992 12.8155 12.2573 12.7169C12.2155 12.6182 12.1939 12.5122 12.1939 12.405C12.1939 12.2978 12.2155 12.1918 12.2573 12.0931C12.2992 11.9945 12.3604 11.9053 12.4375 11.8308L14.2683 10L12.4375 8.16917C12.294 8.01514 12.2158 7.81143 12.2196 7.60093C12.2233 7.39044 12.3085 7.18961 12.4574 7.04074C12.6063 6.89188 12.8071 6.80661 13.0176 6.80289C13.2281 6.79918 13.4318 6.87731 13.5858 7.02083L15.9908 9.42583C16.1419 9.57873 16.2267 9.78503 16.2267 10C16.2267 10.215 16.1419 10.4213 15.9908 10.5742Z" fill="#7B6DFF"/>
</svg>
