<svg width="20" height="18" viewBox="0 0 20 18" fill="none" xmlns="http://www.w3.org/2000/svg">
<path d="M19.5387 3.70083V5.7675C19.5387 5.80926 19.5305 5.8506 19.5145 5.88918C19.4985 5.92775 19.4751 5.9628 19.4456 5.99233C19.4161 6.02185 19.381 6.04527 19.3424 6.06125C19.3039 6.07723 19.2625 6.08545 19.2208 6.08545H0.779722C0.737968 6.08545 0.696624 6.07723 0.658048 6.06125C0.619473 6.04527 0.584422 6.02185 0.554898 5.99233C0.525374 5.9628 0.501954 5.92775 0.485975 5.88918C0.469997 5.8506 0.461773 5.80926 0.461773 5.7675V3.70083C0.400153 3.26895 0.439913 2.82865 0.577906 2.41479C0.7159 2.00093 0.948338 1.62487 1.25682 1.31639C1.5653 1.00791 1.94136 0.775471 2.35522 0.637477C2.76908 0.499483 3.20938 0.459723 3.64126 0.521343H16.3592C16.7911 0.459723 17.2314 0.499483 17.6453 0.637477C18.0591 0.775471 18.4352 1.00791 18.7437 1.31639C19.0521 1.62487 19.2846 2.00093 19.4226 2.41479C19.5606 2.82865 19.6003 3.26895 19.5387 3.70083ZM0.461773 7.99315V14.2991C0.400153 14.731 0.439913 15.1713 0.577906 15.5852C0.7159 15.999 0.948338 16.3751 1.25682 16.6836C1.5653 16.9921 1.94136 17.2245 2.35522 17.3625C2.76908 17.5005 3.20938 17.5402 3.64126 17.4786H16.3592C16.7911 17.5402 17.2314 17.5005 17.6453 17.3625C18.0591 17.2245 18.4352 16.9921 18.7437 16.6836C19.0521 16.3751 19.2846 15.999 19.4226 15.5852C19.5606 15.1713 19.6003 14.731 19.5387 14.2991V7.99315C19.5387 7.90882 19.5052 7.82795 19.4456 7.76832C19.386 7.70869 19.3051 7.6752 19.2208 7.6752H0.779722C0.695397 7.6752 0.614525 7.70869 0.554898 7.76832C0.495271 7.82795 0.461773 7.90882 0.461773 7.99315Z" fill="#7B6DFF"/>
</svg>
