<svg width="20" height="20" viewBox="0 0 20 20" fill="none" xmlns="http://www.w3.org/2000/svg">
<path fill-rule="evenodd" clip-rule="evenodd" d="M9.99999 16.6666C13.6819 16.6666 16.6667 13.6819 16.6667 9.99996C16.6667 6.31806 13.6819 3.33329 9.99999 3.33329C6.31809 3.33329 3.33332 6.31806 3.33332 9.99996C3.33332 13.6819 6.31809 16.6666 9.99999 16.6666ZM9.99999 18.3333C14.6023 18.3333 18.3333 14.6023 18.3333 9.99996C18.3333 5.39758 14.6023 1.66663 9.99999 1.66663C5.39761 1.66663 1.66666 5.39758 1.66666 9.99996C1.66666 14.6023 5.39761 18.3333 9.99999 18.3333Z" fill="white"/>
<path d="M9.99999 8.33337C9.99999 7.87314 10.3731 7.50004 10.8333 7.50004H11.6667C12.1269 7.50004 12.5 7.12695 12.5 6.66671C12.5 6.20647 12.1269 5.83337 11.6667 5.83337H10.8333C9.45257 5.83337 8.33332 6.95267 8.33332 8.33337V10H7.49999C7.03976 10 6.66666 10.3731 6.66666 10.8334C6.66666 11.2936 7.03975 11.6667 7.49999 11.6667H8.33332V16.6667C8.33332 17.127 8.70641 17.5 9.16666 17.5C9.62691 17.5 9.99999 17.127 9.99999 16.6667V11.6667H11.6667C12.1269 11.6667 12.5 11.2936 12.5 10.8334C12.5 10.3731 12.1269 10 11.6667 10H9.99999V8.33337Z" fill="white"/>
</svg>
