<svg width="20" height="20" viewBox="0 0 20 20" fill="none" xmlns="http://www.w3.org/2000/svg">
<path d="M6.20822 10.9502H2.95822C2.6305 10.9808 2.30007 10.9387 1.99045 10.827C1.68084 10.7153 1.39965 10.5367 1.16691 10.304C0.934168 10.0713 0.755597 9.79007 0.643908 9.48046C0.53222 9.17084 0.490159 8.84041 0.520722 8.51269V3.09602C0.490159 2.7683 0.53222 2.43787 0.643908 2.12825C0.755597 1.81863 0.934168 1.53745 1.16691 1.30471C1.39965 1.07197 1.68084 0.893396 1.99045 0.781707C2.30007 0.670018 2.6305 0.627958 2.95822 0.65852H6.20822C6.53595 0.627958 6.86638 0.670018 7.17599 0.781707C7.48561 0.893396 7.7668 1.07197 7.99954 1.30471C8.23228 1.53745 8.41085 1.81863 8.52254 2.12825C8.63423 2.43787 8.67629 2.7683 8.64572 3.09602V8.51269C8.67629 8.84041 8.63423 9.17084 8.52254 9.48046C8.41085 9.79007 8.23228 10.0713 7.99954 10.304C7.7668 10.5367 7.48561 10.7153 7.17599 10.827C6.86638 10.9387 6.53595 10.9808 6.20822 10.9502ZM6.20822 19.6169H2.95822C2.6305 19.6474 2.30007 19.6054 1.99045 19.4937C1.68084 19.382 1.39965 19.2034 1.16691 18.9707C0.934168 18.7379 0.755597 18.4567 0.643908 18.1471C0.53222 17.8375 0.490159 17.5071 0.520722 17.1794V16.096C0.490159 15.7683 0.53222 15.4379 0.643908 15.1283C0.755597 14.8186 0.934168 14.5374 1.16691 14.3047C1.39965 14.072 1.68084 13.8934 1.99045 13.7817C2.30007 13.67 2.6305 13.628 2.95822 13.6585H6.20822C6.53595 13.628 6.86638 13.67 7.17599 13.7817C7.48561 13.8934 7.7668 14.072 7.99954 14.3047C8.23228 14.5374 8.41085 14.8186 8.52254 15.1283C8.63423 15.4379 8.67629 15.7683 8.64572 16.096V17.1794C8.67629 17.5071 8.63423 17.8375 8.52254 18.1471C8.41085 18.4567 8.23228 18.7379 7.99954 18.9707C7.7668 19.2034 7.48561 19.382 7.17599 19.4937C6.86638 19.6054 6.53595 19.6474 6.20822 19.6169ZM17.0416 19.6169H13.7916C13.4638 19.6474 13.1334 19.6054 12.8238 19.4937C12.5142 19.382 12.233 19.2034 12.0002 18.9707C11.7675 18.7379 11.5889 18.4567 11.4772 18.1471C11.3656 17.8375 11.3235 17.5071 11.3541 17.1794V11.7627C11.3235 11.435 11.3656 11.1045 11.4772 10.7949C11.5889 10.4853 11.7675 10.2041 12.0002 9.97138C12.233 9.73863 12.5142 9.56006 12.8238 9.44837C13.1334 9.33669 13.4638 9.29463 13.7916 9.32519H17.0416C17.3693 9.29463 17.6997 9.33669 18.0093 9.44837C18.3189 9.56006 18.6001 9.73863 18.8329 9.97138C19.0656 10.2041 19.2442 10.4853 19.3559 10.7949C19.4676 11.1045 19.5096 11.435 19.4791 11.7627V17.1794C19.5096 17.5071 19.4676 17.8375 19.3559 18.1471C19.2442 18.4567 19.0656 18.7379 18.8329 18.9707C18.6001 19.2034 18.3189 19.382 18.0093 19.4937C17.6997 19.6054 17.3693 19.6474 17.0416 19.6169ZM17.0416 6.61685H13.7916C13.4638 6.64742 13.1334 6.60536 12.8238 6.49367C12.5142 6.38198 12.233 6.20341 12.0002 5.97067C11.7675 5.73793 11.5889 5.45674 11.4772 5.14712C11.3656 4.83751 11.3235 4.50708 11.3541 4.17935V3.09602C11.3235 2.7683 11.3656 2.43787 11.4772 2.12825C11.5889 1.81863 11.7675 1.53745 12.0002 1.30471C12.233 1.07197 12.5142 0.893396 12.8238 0.781707C13.1334 0.670018 13.4638 0.627958 13.7916 0.65852H17.0416C17.3693 0.627958 17.6997 0.670018 18.0093 0.781707C18.3189 0.893396 18.6001 1.07197 18.8329 1.30471C19.0656 1.53745 19.2442 1.81863 19.3559 2.12825C19.4676 2.43787 19.5096 2.7683 19.4791 3.09602V4.17935C19.5096 4.50708 19.4676 4.83751 19.3559 5.14712C19.2442 5.45674 19.0656 5.73793 18.8329 5.97067C18.6001 6.20341 18.3189 6.38198 18.0093 6.49367C17.6997 6.60536 17.3693 6.64742 17.0416 6.61685Z" fill="#7B6DFF"/>
</svg>
