<svg width="1200" height="427" viewBox="0 0 1200 427" fill="none" xmlns="http://www.w3.org/2000/svg">
<g style="mix-blend-mode:plus-lighter" opacity="0.7">
<path d="M213.069 314.615C213.069 314.615 212.947 314.686 212.983 314.747L87.1721 639.211L108.107 238.566L108.176 237.703L166.069 245.989C212.729 253.357 227.807 276.243 213.008 314.65L213.069 314.615Z" fill="url(#paint0_linear_62_1129)" fill-opacity="0.015"/>
<path d="M212.778 314.552C212.799 314.519 212.822 314.495 212.838 314.479C212.855 314.463 212.871 314.449 212.886 314.438L212.883 314.434L212.942 314.4L212.943 314.399L212.944 314.399L212.944 314.399L212.944 314.399L212.944 314.399L213.041 314.566C227.785 276.209 212.695 253.351 166.069 245.989M212.778 314.552C220.161 295.388 220.064 280.164 212.379 268.82C204.685 257.463 189.338 249.917 166.032 246.237L166.034 246.237L166.069 245.989M212.778 314.552C212.777 314.555 212.776 314.558 212.775 314.561L212.73 314.676M212.778 314.552C212.768 314.567 212.759 314.585 212.751 314.604C212.742 314.625 212.735 314.65 212.73 314.676M166.069 245.989L166.03 246.236L108.404 237.988M166.069 245.989L108.424 237.739L108.404 237.988M108.404 237.988L108.156 237.953L108.107 238.566M108.404 237.988L108.357 238.579L108.107 238.566M108.107 238.566L87.2139 638.411L87.5032 637.665M108.107 238.566L108.356 238.586L87.5032 637.665M87.5032 637.665L87.4614 638.464L212.88 315.013L212.534 315.213M87.5032 637.665L212.534 315.213M212.534 315.213L212.727 314.717C212.727 314.703 212.728 314.689 212.73 314.676M212.534 315.213L212.521 315.221L212.73 314.676" stroke="url(#paint1_diamond_62_1129)" stroke-opacity="0.3" stroke-width="0.5"/>
<path d="M-110.694 115.187L-237 188.11L166.089 245.879C212.809 253.212 227.862 276.195 212.942 314.673L235.688 256.045L239.738 245.644L250.384 218.139L246.076 229.241C260.936 190.798 246.015 167.904 199.573 160.493L199.223 160.448L-112.213 116.072L-110.683 115.189L-110.694 115.187Z" fill="url(#paint2_linear_62_1129)" fill-opacity="0.03"/>
<path d="M166.124 245.632L-236.249 187.965L-112.174 116.33L199.188 160.696L199.191 160.696L199.534 160.74C199.535 160.74 199.536 160.74 199.538 160.74C222.733 164.442 237.986 172.002 245.605 183.369C253.218 194.727 253.259 209.965 245.843 229.151C245.843 229.151 245.843 229.151 245.843 229.151L245.852 229.155L239.505 245.554L239.505 245.554L235.455 255.954L235.455 255.954L216.366 305.156C220.416 290.285 219.3 278.036 212.838 268.457C205.041 256.898 189.511 249.302 166.127 245.632L166.124 245.632Z" stroke="url(#paint3_diamond_62_1129)" stroke-opacity="0.24" stroke-width="0.5"/>
<path d="M-112.214 116.071L14.0916 43.1486L255.374 77.1031C279.274 80.5809 293.931 105.685 285.221 128.237L272.487 161.093L268.821 170.613L246.074 229.241C260.934 190.798 246.013 167.903 199.572 160.492L199.221 160.448L-112.214 116.071Z" fill="url(#paint4_linear_62_1129)" fill-opacity="0.03"/>
<path d="M268.588 170.523L249.469 219.8C253.529 204.917 252.439 192.67 246.019 183.09C238.282 171.548 222.855 163.955 199.611 160.245L199.611 160.245L199.603 160.244L199.257 160.2L199.253 160.2L-111.463 115.926L14.142 43.4082L255.338 77.3505C279.079 80.8052 293.64 105.745 284.988 128.147L272.254 161.002L272.253 161.003L268.588 170.523L268.588 170.523Z" stroke="url(#paint5_diamond_62_1129)" stroke-opacity="0.2" stroke-width="0.5"/>
<path d="M213.069 314.615C213.069 314.615 212.947 314.686 212.983 314.747L87.1721 639.211L108.107 238.566L108.176 237.703L166.069 245.989C212.729 253.357 227.807 276.243 213.008 314.65L213.069 314.615Z" fill="url(#paint6_linear_62_1129)" fill-opacity="0.015"/>
<path d="M212.778 314.552C212.799 314.519 212.822 314.495 212.838 314.479C212.855 314.463 212.871 314.449 212.886 314.438L212.883 314.434L212.942 314.4L212.943 314.399L212.944 314.399L212.944 314.399L212.944 314.399L212.944 314.399L213.041 314.566C227.785 276.209 212.695 253.351 166.069 245.989M212.778 314.552C220.161 295.388 220.064 280.164 212.379 268.82C204.685 257.463 189.338 249.917 166.032 246.237L166.034 246.237L166.069 245.989M212.778 314.552C212.777 314.555 212.776 314.558 212.775 314.561L212.73 314.676M212.778 314.552C212.768 314.567 212.759 314.585 212.751 314.604C212.742 314.625 212.735 314.65 212.73 314.676M166.069 245.989L166.03 246.236L108.404 237.988M166.069 245.989L108.424 237.739L108.404 237.988M108.404 237.988L108.156 237.953L108.107 238.566M108.404 237.988L108.357 238.579L108.107 238.566M108.107 238.566L87.2139 638.411L87.5032 637.665M108.107 238.566L108.356 238.586L87.5032 637.665M87.5032 637.665L87.4614 638.464L212.88 315.013L212.534 315.213M87.5032 637.665L212.534 315.213M212.534 315.213L212.727 314.717C212.727 314.703 212.728 314.689 212.73 314.676M212.534 315.213L212.521 315.221L212.73 314.676" stroke="url(#paint7_diamond_62_1129)" stroke-opacity="0.3" stroke-width="0.5"/>
<path d="M-110.694 115.187L-237 188.11L166.089 245.879C212.809 253.212 227.862 276.195 212.942 314.673L235.688 256.045L239.738 245.644L250.384 218.139L246.076 229.241C260.936 190.798 246.015 167.904 199.573 160.493L199.223 160.448L-112.213 116.072L-110.683 115.189L-110.694 115.187Z" fill="url(#paint8_linear_62_1129)" fill-opacity="0.03"/>
<path d="M166.124 245.632L-236.249 187.965L-112.174 116.33L199.188 160.696L199.191 160.696L199.534 160.74C199.535 160.74 199.536 160.74 199.538 160.74C222.733 164.442 237.986 172.002 245.605 183.369C253.218 194.727 253.259 209.965 245.843 229.151C245.843 229.151 245.843 229.151 245.843 229.151L245.852 229.155L239.505 245.554L239.505 245.554L235.455 255.954L235.455 255.954L216.366 305.156C220.416 290.285 219.3 278.036 212.838 268.457C205.041 256.898 189.511 249.302 166.127 245.632L166.124 245.632Z" stroke="url(#paint9_diamond_62_1129)" stroke-opacity="0.24" stroke-width="0.5"/>
<path d="M-112.214 116.071L14.0916 43.1486L255.374 77.1031C279.274 80.5809 293.931 105.685 285.221 128.237L272.487 161.093L268.821 170.613L246.074 229.241C260.934 190.798 246.013 167.903 199.572 160.492L199.221 160.448L-112.214 116.071Z" fill="url(#paint10_linear_62_1129)" fill-opacity="0.03"/>
<path d="M268.588 170.523L249.469 219.8C253.529 204.917 252.439 192.67 246.019 183.09C238.282 171.548 222.855 163.955 199.611 160.245L199.611 160.245L199.603 160.244L199.257 160.2L199.253 160.2L-111.463 115.926L14.142 43.4082L255.338 77.3505C279.079 80.8052 293.64 105.745 284.988 128.147L272.254 161.002L272.253 161.003L268.588 170.523L268.588 170.523Z" stroke="url(#paint11_diamond_62_1129)" stroke-opacity="0.2" stroke-width="0.5"/>
</g>
<g style="mix-blend-mode:plus-lighter" opacity="0.7">
<path d="M987.16 314.615C987.16 314.615 987.282 314.686 987.246 314.747L1113.06 639.211L1092.12 238.566L1092.05 237.703L1034.16 245.989C987.5 253.357 972.422 276.243 987.221 314.65L987.16 314.615Z" fill="url(#paint12_linear_62_1129)" fill-opacity="0.015"/>
<path d="M987.451 314.552C987.43 314.519 987.407 314.495 987.391 314.479C987.374 314.463 987.358 314.449 987.343 314.438L987.346 314.434L987.287 314.4L987.286 314.399L987.286 314.399L987.285 314.399L987.285 314.399L987.285 314.399L987.188 314.566C972.444 276.209 987.534 253.351 1034.16 245.989M987.451 314.552C980.069 295.388 980.165 280.164 987.85 268.82C995.544 257.463 1010.89 249.917 1034.2 246.237L1034.2 246.237L1034.16 245.989M987.451 314.552C987.452 314.555 987.453 314.558 987.454 314.561L987.499 314.676M987.451 314.552C987.461 314.567 987.47 314.585 987.478 314.604C987.487 314.625 987.495 314.65 987.499 314.676M1034.16 245.989L1034.2 246.236L1091.82 237.988M1034.16 245.989L1091.8 237.739L1091.82 237.988M1091.82 237.988L1092.07 237.953L1092.12 238.566M1091.82 237.988L1091.87 238.579L1092.12 238.566M1092.12 238.566L1113.02 638.411L1112.73 637.665M1092.12 238.566L1091.87 238.586L1112.73 637.665M1112.73 637.665L1112.77 638.464L987.349 315.013L987.695 315.213M1112.73 637.665L987.695 315.213M987.695 315.213L987.503 314.717C987.502 314.703 987.501 314.689 987.499 314.676M987.695 315.213L987.708 315.221L987.499 314.676" stroke="url(#paint13_diamond_62_1129)" stroke-opacity="0.3" stroke-width="0.5"/>
<path d="M1310.92 115.187L1437.23 188.11L1034.14 245.879C987.42 253.212 972.367 276.195 987.287 314.673L964.541 256.045L960.491 245.644L949.846 218.139L954.153 229.241C939.293 190.798 954.214 167.904 1000.66 160.493L1001.01 160.448L1312.44 116.072L1310.91 115.189L1310.92 115.187Z" fill="url(#paint14_linear_62_1129)" fill-opacity="0.03"/>
<path d="M1034.1 245.632L1436.48 187.965L1312.4 116.33L1001.04 160.696L1001.04 160.696L1000.7 160.74C1000.69 160.74 1000.69 160.74 1000.69 160.74C977.496 164.442 962.243 172.002 954.624 183.369C947.012 194.727 946.97 209.965 954.386 229.151C954.386 229.151 954.386 229.151 954.386 229.151L954.377 229.155L960.724 245.554L960.724 245.554L964.774 255.954L964.774 255.954L983.863 305.156C979.813 290.285 980.93 278.036 987.391 268.457C995.188 256.898 1010.72 249.302 1034.1 245.632L1034.1 245.632Z" stroke="url(#paint15_diamond_62_1129)" stroke-opacity="0.24" stroke-width="0.5"/>
<path d="M1312.44 116.071L1186.14 43.1486L944.855 77.1031C920.955 80.5809 906.299 105.685 915.008 128.237L927.742 161.093L931.408 170.613L954.155 229.241C939.295 190.798 954.216 167.903 1000.66 160.492L1001.01 160.448L1312.44 116.071Z" fill="url(#paint16_linear_62_1129)" fill-opacity="0.03"/>
<path d="M931.641 170.523L950.76 219.8C946.701 204.917 947.79 192.67 954.211 183.09C961.947 171.548 977.374 163.955 1000.62 160.245L1000.62 160.245L1000.63 160.244L1000.97 160.2L1000.98 160.2L1311.69 115.926L1186.09 43.4082L944.891 77.3505C921.15 80.8052 906.59 105.745 915.242 128.147L927.975 161.002L927.976 161.003L931.641 170.523L931.641 170.523Z" stroke="url(#paint17_diamond_62_1129)" stroke-opacity="0.2" stroke-width="0.5"/>
<path d="M987.16 314.615C987.16 314.615 987.282 314.686 987.246 314.747L1113.06 639.211L1092.12 238.566L1092.05 237.703L1034.16 245.989C987.5 253.357 972.422 276.243 987.221 314.65L987.16 314.615Z" fill="url(#paint18_linear_62_1129)" fill-opacity="0.015"/>
<path d="M987.451 314.552C987.43 314.519 987.407 314.495 987.391 314.479C987.374 314.463 987.358 314.449 987.343 314.438L987.346 314.434L987.287 314.4L987.286 314.399L987.286 314.399L987.285 314.399L987.285 314.399L987.285 314.399L987.188 314.566C972.444 276.209 987.534 253.351 1034.16 245.989M987.451 314.552C980.069 295.388 980.165 280.164 987.85 268.82C995.544 257.463 1010.89 249.917 1034.2 246.237L1034.2 246.237L1034.16 245.989M987.451 314.552C987.452 314.555 987.453 314.558 987.454 314.561L987.499 314.676M987.451 314.552C987.461 314.567 987.47 314.585 987.478 314.604C987.487 314.625 987.495 314.65 987.499 314.676M1034.16 245.989L1034.2 246.236L1091.82 237.988M1034.16 245.989L1091.8 237.739L1091.82 237.988M1091.82 237.988L1092.07 237.953L1092.12 238.566M1091.82 237.988L1091.87 238.579L1092.12 238.566M1092.12 238.566L1113.02 638.411L1112.73 637.665M1092.12 238.566L1091.87 238.586L1112.73 637.665M1112.73 637.665L1112.77 638.464L987.349 315.013L987.695 315.213M1112.73 637.665L987.695 315.213M987.695 315.213L987.503 314.717C987.502 314.703 987.501 314.689 987.499 314.676M987.695 315.213L987.708 315.221L987.499 314.676" stroke="url(#paint19_diamond_62_1129)" stroke-opacity="0.3" stroke-width="0.5"/>
<path d="M1310.92 115.187L1437.23 188.11L1034.14 245.879C987.42 253.212 972.367 276.195 987.287 314.673L964.541 256.045L960.491 245.644L949.846 218.139L954.153 229.241C939.293 190.798 954.214 167.904 1000.66 160.493L1001.01 160.448L1312.44 116.072L1310.91 115.189L1310.92 115.187Z" fill="url(#paint20_linear_62_1129)" fill-opacity="0.03"/>
<path d="M1034.1 245.632L1436.48 187.965L1312.4 116.33L1001.04 160.696L1001.04 160.696L1000.7 160.74C1000.69 160.74 1000.69 160.74 1000.69 160.74C977.496 164.442 962.243 172.002 954.624 183.369C947.012 194.727 946.97 209.965 954.386 229.151C954.386 229.151 954.386 229.151 954.386 229.151L954.377 229.155L960.724 245.554L960.724 245.554L964.774 255.954L964.774 255.954L983.863 305.156C979.813 290.285 980.93 278.036 987.391 268.457C995.188 256.898 1010.72 249.302 1034.1 245.632L1034.1 245.632Z" stroke="url(#paint21_diamond_62_1129)" stroke-opacity="0.24" stroke-width="0.5"/>
<path d="M1312.44 116.071L1186.14 43.1486L944.855 77.1031C920.955 80.5809 906.299 105.685 915.008 128.237L927.742 161.093L931.408 170.613L954.155 229.241C939.295 190.798 954.216 167.903 1000.66 160.492L1001.01 160.448L1312.44 116.071Z" fill="url(#paint22_linear_62_1129)" fill-opacity="0.03"/>
<path d="M931.641 170.523L950.76 219.8C946.701 204.917 947.79 192.67 954.211 183.09C961.947 171.548 977.374 163.955 1000.62 160.245L1000.62 160.245L1000.63 160.244L1000.97 160.2L1000.98 160.2L1311.69 115.926L1186.09 43.4082L944.891 77.3505C921.15 80.8052 906.59 105.745 915.242 128.147L927.975 161.002L927.976 161.003L931.641 170.523L931.641 170.523Z" stroke="url(#paint23_diamond_62_1129)" stroke-opacity="0.2" stroke-width="0.5"/>
</g>
<defs>
<linearGradient id="paint0_linear_62_1129" x1="108.046" y1="522.304" x2="156.111" y2="267.136" gradientUnits="userSpaceOnUse">
<stop stop-color="white" stop-opacity="0"/>
<stop offset="1" stop-color="white"/>
</linearGradient>
<radialGradient id="paint1_diamond_62_1129" cx="0" cy="0" r="1" gradientUnits="userSpaceOnUse" gradientTransform="translate(96.5701 398.405) rotate(94.3354) scale(153.687 156.731)">
<stop stop-color="white" stop-opacity="0.5"/>
<stop offset="1" stop-color="white" stop-opacity="0"/>
</radialGradient>
<linearGradient id="paint2_linear_62_1129" x1="-83.3425" y1="169.783" x2="184.07" y2="125.577" gradientUnits="userSpaceOnUse">
<stop stop-color="white" stop-opacity="0"/>
<stop offset="1" stop-color="white" stop-opacity="0.5"/>
</linearGradient>
<radialGradient id="paint3_diamond_62_1129" cx="0" cy="0" r="1" gradientUnits="userSpaceOnUse" gradientTransform="translate(73.4805 159.943) rotate(-172.021) scale(229.601 230.116)">
<stop stop-color="white" stop-opacity="0.5"/>
<stop offset="1" stop-color="white" stop-opacity="0"/>
</radialGradient>
<linearGradient id="paint4_linear_62_1129" x1="-7.81875" y1="111.272" x2="233.579" y2="57.709" gradientUnits="userSpaceOnUse">
<stop stop-color="white" stop-opacity="0"/>
<stop offset="1" stop-color="white"/>
</linearGradient>
<radialGradient id="paint5_diamond_62_1129" cx="0" cy="0" r="1" gradientUnits="userSpaceOnUse" gradientTransform="translate(171.039 65.5322) rotate(-170.986) scale(212.401 212.401)">
<stop offset="0.0712031" stop-color="white" stop-opacity="0.5"/>
<stop offset="1" stop-color="white" stop-opacity="0"/>
</radialGradient>
<linearGradient id="paint6_linear_62_1129" x1="108.046" y1="522.304" x2="156.111" y2="267.136" gradientUnits="userSpaceOnUse">
<stop stop-color="white" stop-opacity="0"/>
<stop offset="1" stop-color="white"/>
</linearGradient>
<radialGradient id="paint7_diamond_62_1129" cx="0" cy="0" r="1" gradientUnits="userSpaceOnUse" gradientTransform="translate(96.5701 398.405) rotate(94.3354) scale(153.687 156.731)">
<stop stop-color="white" stop-opacity="0.5"/>
<stop offset="1" stop-color="white" stop-opacity="0"/>
</radialGradient>
<linearGradient id="paint8_linear_62_1129" x1="-83.3425" y1="169.783" x2="184.07" y2="125.577" gradientUnits="userSpaceOnUse">
<stop stop-color="white" stop-opacity="0"/>
<stop offset="1" stop-color="white" stop-opacity="0.5"/>
</linearGradient>
<radialGradient id="paint9_diamond_62_1129" cx="0" cy="0" r="1" gradientUnits="userSpaceOnUse" gradientTransform="translate(73.4805 159.943) rotate(-172.021) scale(229.601 230.116)">
<stop stop-color="white" stop-opacity="0.5"/>
<stop offset="1" stop-color="white" stop-opacity="0"/>
</radialGradient>
<linearGradient id="paint10_linear_62_1129" x1="-7.81875" y1="111.272" x2="233.579" y2="57.709" gradientUnits="userSpaceOnUse">
<stop stop-color="white" stop-opacity="0"/>
<stop offset="1" stop-color="white"/>
</linearGradient>
<radialGradient id="paint11_diamond_62_1129" cx="0" cy="0" r="1" gradientUnits="userSpaceOnUse" gradientTransform="translate(171.039 65.5322) rotate(-170.986) scale(212.401 212.401)">
<stop offset="0.0712031" stop-color="white" stop-opacity="0.5"/>
<stop offset="1" stop-color="white" stop-opacity="0"/>
</radialGradient>
<linearGradient id="paint12_linear_62_1129" x1="1092.18" y1="522.304" x2="1044.12" y2="267.136" gradientUnits="userSpaceOnUse">
<stop stop-color="white" stop-opacity="0"/>
<stop offset="1" stop-color="white"/>
</linearGradient>
<radialGradient id="paint13_diamond_62_1129" cx="0" cy="0" r="1" gradientUnits="userSpaceOnUse" gradientTransform="translate(1103.66 398.405) rotate(85.6646) scale(153.687 156.731)">
<stop stop-color="white" stop-opacity="0.5"/>
<stop offset="1" stop-color="white" stop-opacity="0"/>
</radialGradient>
<linearGradient id="paint14_linear_62_1129" x1="1283.57" y1="169.783" x2="1016.16" y2="125.577" gradientUnits="userSpaceOnUse">
<stop stop-color="white" stop-opacity="0"/>
<stop offset="1" stop-color="white" stop-opacity="0.5"/>
</linearGradient>
<radialGradient id="paint15_diamond_62_1129" cx="0" cy="0" r="1" gradientUnits="userSpaceOnUse" gradientTransform="translate(1126.75 159.943) rotate(-7.97922) scale(229.601 230.116)">
<stop stop-color="white" stop-opacity="0.5"/>
<stop offset="1" stop-color="white" stop-opacity="0"/>
</radialGradient>
<linearGradient id="paint16_linear_62_1129" x1="1208.05" y1="111.272" x2="966.651" y2="57.709" gradientUnits="userSpaceOnUse">
<stop stop-color="white" stop-opacity="0"/>
<stop offset="1" stop-color="white"/>
</linearGradient>
<radialGradient id="paint17_diamond_62_1129" cx="0" cy="0" r="1" gradientUnits="userSpaceOnUse" gradientTransform="translate(1029.19 65.5322) rotate(-9.01428) scale(212.401 212.401)">
<stop offset="0.0712031" stop-color="white" stop-opacity="0.5"/>
<stop offset="1" stop-color="white" stop-opacity="0"/>
</radialGradient>
<linearGradient id="paint18_linear_62_1129" x1="1092.18" y1="522.304" x2="1044.12" y2="267.136" gradientUnits="userSpaceOnUse">
<stop stop-color="white" stop-opacity="0"/>
<stop offset="1" stop-color="white"/>
</linearGradient>
<radialGradient id="paint19_diamond_62_1129" cx="0" cy="0" r="1" gradientUnits="userSpaceOnUse" gradientTransform="translate(1103.66 398.405) rotate(85.6646) scale(153.687 156.731)">
<stop stop-color="white" stop-opacity="0.5"/>
<stop offset="1" stop-color="white" stop-opacity="0"/>
</radialGradient>
<linearGradient id="paint20_linear_62_1129" x1="1283.57" y1="169.783" x2="1016.16" y2="125.577" gradientUnits="userSpaceOnUse">
<stop stop-color="white" stop-opacity="0"/>
<stop offset="1" stop-color="white" stop-opacity="0.5"/>
</linearGradient>
<radialGradient id="paint21_diamond_62_1129" cx="0" cy="0" r="1" gradientUnits="userSpaceOnUse" gradientTransform="translate(1126.75 159.943) rotate(-7.97922) scale(229.601 230.116)">
<stop stop-color="white" stop-opacity="0.5"/>
<stop offset="1" stop-color="white" stop-opacity="0"/>
</radialGradient>
<linearGradient id="paint22_linear_62_1129" x1="1208.05" y1="111.272" x2="966.651" y2="57.709" gradientUnits="userSpaceOnUse">
<stop stop-color="white" stop-opacity="0"/>
<stop offset="1" stop-color="white"/>
</linearGradient>
<radialGradient id="paint23_diamond_62_1129" cx="0" cy="0" r="1" gradientUnits="userSpaceOnUse" gradientTransform="translate(1029.19 65.5322) rotate(-9.01428) scale(212.401 212.401)">
<stop offset="0.0712031" stop-color="white" stop-opacity="0.5"/>
<stop offset="1" stop-color="white" stop-opacity="0"/>
</radialGradient>
</defs>
</svg>
