<svg width="7" height="5" viewBox="0 0 7 5" fill="none" xmlns="http://www.w3.org/2000/svg">
<path d="M3.69645 0.953789L3.56069 1.09163L3.42492 0.953767C3.30237 0.829271 3.15628 0.7304 2.99515 0.662913C2.83402 0.595425 2.66107 0.560669 2.48638 0.560669C2.31169 0.560669 2.13874 0.595425 1.97761 0.662913C1.81648 0.7304 1.67039 0.829271 1.54784 0.953767C1.29959 1.20888 1.16069 1.55079 1.16069 1.90675C1.16069 2.26272 1.29959 2.60463 1.54784 2.85974L2.98589 4.31991C3.06094 4.39616 3.15042 4.45672 3.2491 4.49805C3.34779 4.53938 3.45371 4.56067 3.5607 4.56067C3.66769 4.56067 3.77362 4.53938 3.8723 4.49805C3.97099 4.45672 4.06046 4.39616 4.13552 4.31991L5.57355 2.85977C5.8218 2.60466 5.9607 2.26274 5.9607 1.90678C5.9607 1.55082 5.8218 1.2089 5.57355 0.953791C5.451 0.829291 5.30491 0.730416 5.14378 0.662926C4.98265 0.595435 4.8097 0.560678 4.635 0.560678C4.4603 0.560677 4.28735 0.595434 4.12622 0.662924C3.96509 0.730414 3.819 0.829288 3.69645 0.953789Z" stroke="#4D5761" stroke-width="0.512" stroke-linecap="round" stroke-linejoin="round"/>
</svg>
