<svg width="20" height="20" viewBox="0 0 20 20" fill="none" xmlns="http://www.w3.org/2000/svg">
<g id="Icons/Instagram/Line">
<path id="Vector" fill-rule="evenodd" clip-rule="evenodd" d="M13.3334 3.33329H6.66669C4.82574 3.33329 3.33335 4.82568 3.33335 6.66663V13.3333C3.33335 15.1742 4.82574 16.6666 6.66669 16.6666H13.3334C15.1743 16.6666 16.6667 15.1742 16.6667 13.3333V6.66663C16.6667 4.82568 15.1743 3.33329 13.3334 3.33329ZM6.66669 1.66663C3.90526 1.66663 1.66669 3.9052 1.66669 6.66663V13.3333C1.66669 16.0947 3.90526 18.3333 6.66669 18.3333H13.3334C16.0948 18.3333 18.3334 16.0947 18.3334 13.3333V6.66663C18.3334 3.9052 16.0948 1.66663 13.3334 1.66663H6.66669Z" fill="white"/>
<path id="Vector_2" d="M14.1666 6.66667C14.6269 6.66667 15 6.29357 15 5.83333C15 5.3731 14.6269 5 14.1666 5C13.7064 5 13.3333 5.3731 13.3333 5.83333C13.3333 6.29357 13.7064 6.66667 14.1666 6.66667Z" fill="white"/>
<path id="Vector_3" fill-rule="evenodd" clip-rule="evenodd" d="M14.1666 10C14.1666 12.3012 12.3011 14.1667 9.99998 14.1667C7.6988 14.1667 5.83331 12.3012 5.83331 10C5.83331 7.69886 7.6988 5.83337 9.99998 5.83337C12.3011 5.83337 14.1666 7.69886 14.1666 10ZM12.5 10C12.5 11.3808 11.3807 12.5 9.99998 12.5C8.61923 12.5 7.49998 11.3808 7.49998 10C7.49998 8.61929 8.61923 7.50004 9.99998 7.50004C11.3807 7.50004 12.5 8.61929 12.5 10Z" fill="white"/>
</g>
</svg>
