<svg width="1200" height="427" viewBox="0 0 1200 427" fill="none" xmlns="http://www.w3.org/2000/svg">
<g style="mix-blend-mode:plus-lighter" opacity="0.7">
<path d="M213.069 310.615C213.069 310.615 212.947 310.686 212.983 310.747L87.1721 635.211L108.107 234.566L108.176 233.703L166.069 241.989C212.729 249.357 227.807 272.243 213.008 310.65L213.069 310.615Z" fill="url(#paint0_linear_62_1129)"/>
<path d="M213.041 310.566C227.785 272.209 212.695 249.351 166.069 241.989L108.424 233.739L213.041 310.566ZM213.041 310.566L212.944 310.399L212.944 310.399L213.041 310.566ZM212.778 310.552C212.768 310.567 212.759 310.585 212.751 310.604C212.742 310.625 212.735 310.65 212.73 310.676L212.521 311.221L212.534 311.213L87.5032 633.665L108.356 234.586L108.357 234.579L108.404 233.988L166.03 242.236C166.031 242.236 166.032 242.236 166.032 242.237C189.338 245.917 204.685 253.463 212.379 264.82C220.064 276.164 220.161 291.388 212.778 310.552ZM108.107 234.566L108.156 233.953L87.2139 634.411L108.107 234.566ZM212.88 311.013L87.4614 634.464L212.88 311.013Z" stroke="url(#paint1_diamond_62_1129)" stroke-opacity="0.3" stroke-width="0.5"/>
<path d="M-110.694 111.187L-237 184.11L166.089 241.879C212.809 249.212 227.862 272.195 212.942 310.673L235.688 252.045L239.738 241.644L250.384 214.139L246.076 225.241C260.936 186.798 246.015 163.904 199.573 156.493L199.223 156.448L-112.213 112.072L-110.683 111.189L-110.694 111.187Z" fill="url(#paint2_linear_62_1129)"/>
<path d="M-236.249 183.965L-112.174 112.33L199.188 156.696L199.191 156.696L199.534 156.74C199.535 156.74 199.536 156.74 199.538 156.74C222.733 160.442 237.986 168.002 245.605 179.369C253.218 190.727 253.259 205.965 245.843 225.151C245.843 225.151 245.843 225.151 245.843 225.151L245.852 225.155L239.505 241.554L239.505 241.554L235.455 251.954L235.455 251.954L216.366 301.156C220.416 286.285 219.3 274.036 212.838 264.456C205.041 252.898 189.511 245.302 166.127 241.632L166.124 241.632L-236.249 183.965Z" stroke="url(#paint3_diamond_62_1129)" stroke-opacity="0.24" stroke-width="0.5"/>
<path d="M-112.214 112.071L14.0916 39.1486L255.374 73.1031C279.274 76.5809 293.931 101.685 285.221 124.237L272.487 157.093L268.821 166.613L246.074 225.241C260.934 186.798 246.013 163.903 199.572 156.492L199.221 156.448L-112.214 112.071Z" fill="url(#paint4_linear_62_1129)"/>
<path d="M268.588 166.523L249.469 215.8C253.529 200.917 252.439 188.67 246.019 179.09C238.282 167.548 222.855 159.955 199.611 156.245L199.611 156.245L199.603 156.244L199.257 156.2L199.253 156.2L-111.463 111.926L14.142 39.4082L255.338 73.3505C279.079 76.8052 293.64 101.745 284.988 124.147L272.254 157.002L272.253 157.003L268.588 166.523L268.588 166.523Z" stroke="url(#paint5_diamond_62_1129)" stroke-opacity="0.2" stroke-width="0.5"/>
<path d="M213.069 310.615C213.069 310.615 212.947 310.686 212.983 310.747L87.1721 635.211L108.107 234.566L108.176 233.703L166.069 241.989C212.729 249.357 227.807 272.243 213.008 310.65L213.069 310.615Z" fill="url(#paint6_linear_62_1129)"/>
<path d="M213.041 310.566C227.785 272.209 212.695 249.351 166.069 241.989L108.424 233.739L213.041 310.566ZM213.041 310.566L212.944 310.399L212.944 310.399L213.041 310.566ZM212.778 310.552C212.768 310.567 212.759 310.585 212.751 310.604C212.742 310.625 212.735 310.65 212.73 310.676L212.521 311.221L212.534 311.213L87.5032 633.665L108.356 234.586L108.357 234.579L108.404 233.988L166.03 242.236C166.031 242.236 166.032 242.236 166.032 242.237C189.338 245.917 204.685 253.463 212.379 264.82C220.064 276.164 220.161 291.388 212.778 310.552ZM108.107 234.566L108.156 233.953L87.2139 634.411L108.107 234.566ZM212.88 311.013L87.4614 634.464L212.88 311.013Z" stroke="url(#paint7_diamond_62_1129)" stroke-opacity="0.3" stroke-width="0.5"/>
<path d="M-110.694 111.187L-237 184.11L166.089 241.879C212.809 249.212 227.862 272.195 212.942 310.673L235.688 252.045L239.738 241.644L250.384 214.139L246.076 225.241C260.936 186.798 246.015 163.904 199.573 156.493L199.223 156.448L-112.213 112.072L-110.683 111.189L-110.694 111.187Z" fill="url(#paint8_linear_62_1129)"/>
<path d="M-236.249 183.965L-112.174 112.33L199.188 156.696L199.191 156.696L199.534 156.74C199.535 156.74 199.536 156.74 199.538 156.74C222.733 160.442 237.986 168.002 245.605 179.369C253.218 190.727 253.259 205.965 245.843 225.151C245.843 225.151 245.843 225.151 245.843 225.151L245.852 225.155L239.505 241.554L239.505 241.554L235.455 251.954L235.455 251.954L216.366 301.156C220.416 286.285 219.3 274.036 212.838 264.456C205.041 252.898 189.511 245.302 166.127 241.632L166.124 241.632L-236.249 183.965Z" stroke="url(#paint9_diamond_62_1129)" stroke-opacity="0.24" stroke-width="0.5"/>
<path d="M-112.214 112.071L14.0916 39.1486L255.374 73.1031C279.274 76.5809 293.931 101.685 285.221 124.237L272.487 157.093L268.821 166.613L246.074 225.241C260.934 186.798 246.013 163.903 199.572 156.492L199.221 156.448L-112.214 112.071Z" fill="url(#paint10_linear_62_1129)"/>
<path d="M268.588 166.523L249.469 215.8C253.529 200.917 252.439 188.67 246.019 179.09C238.282 167.548 222.855 159.955 199.611 156.245L199.611 156.245L199.603 156.244L199.257 156.2L199.253 156.2L-111.463 111.926L14.142 39.4082L255.338 73.3505C279.079 76.8052 293.64 101.745 284.988 124.147L272.254 157.002L272.253 157.003L268.588 166.523L268.588 166.523Z" stroke="url(#paint11_diamond_62_1129)" stroke-opacity="0.2" stroke-width="0.5"/>
</g>
<g style="mix-blend-mode:plus-lighter">
<path d="M987.16 310.615C987.16 310.615 987.282 310.686 987.246 310.747L1113.06 635.211L1092.12 234.566L1092.05 233.703L1034.16 241.989C987.5 249.357 972.422 272.243 987.221 310.65L987.16 310.615Z" fill="url(#paint12_linear_62_1129)"/>
<path d="M987.188 310.566C972.444 272.209 987.534 249.351 1034.16 241.989L1091.8 233.739L987.188 310.566ZM987.188 310.566L987.285 310.399L987.285 310.399L987.188 310.566ZM987.451 310.552C987.461 310.567 987.47 310.585 987.478 310.604C987.487 310.625 987.495 310.65 987.499 310.676L987.708 311.221L987.695 311.213L1112.73 633.665L1091.87 234.586L1091.87 234.579L1091.82 233.988L1034.2 242.236C1034.2 242.236 1034.2 242.236 1034.2 242.237C1010.89 245.917 995.544 253.463 987.85 264.82C980.165 276.164 980.068 291.388 987.451 310.552ZM1092.12 234.566L1092.07 233.953L1113.02 634.411L1092.12 234.566ZM987.349 311.013L1112.77 634.464L987.349 311.013Z" stroke="url(#paint13_diamond_62_1129)" stroke-opacity="0.3" stroke-width="0.5"/>
<path d="M1310.92 111.187L1437.23 184.11L1034.14 241.879C987.42 249.212 972.367 272.195 987.287 310.673L964.541 252.045L960.491 241.644L949.846 214.139L954.153 225.241C939.293 186.798 954.214 163.904 1000.66 156.493L1001.01 156.448L1312.44 112.072L1310.91 111.189L1310.92 111.187Z" fill="url(#paint14_linear_62_1129)"/>
<path d="M1436.48 183.965L1312.4 112.33L1001.04 156.696L1001.04 156.696L1000.7 156.74C1000.69 156.74 1000.69 156.74 1000.69 156.74C977.496 160.442 962.243 168.002 954.624 179.369C947.012 190.727 946.97 205.965 954.386 225.151C954.386 225.151 954.386 225.151 954.386 225.151L954.377 225.155L960.724 241.554L960.724 241.554L964.774 251.954L964.774 251.954L983.863 301.156C979.813 286.285 980.93 274.036 987.391 264.456C995.188 252.898 1010.72 245.302 1034.1 241.632L1034.1 241.632L1436.48 183.965Z" stroke="url(#paint15_diamond_62_1129)" stroke-opacity="0.24" stroke-width="0.5"/>
<path d="M1312.44 112.071L1186.14 39.1486L944.855 73.1031C920.955 76.5809 906.299 101.685 915.008 124.237L927.742 157.093L931.408 166.613L954.155 225.241C939.295 186.798 954.216 163.903 1000.66 156.492L1001.01 156.448L1312.44 112.071Z" fill="url(#paint16_linear_62_1129)"/>
<path d="M931.641 166.523L950.76 215.8C946.701 200.917 947.79 188.67 954.211 179.09C961.947 167.548 977.374 159.955 1000.62 156.245L1000.62 156.245L1000.63 156.244L1000.97 156.2L1000.98 156.2L1311.69 111.926L1186.09 39.4082L944.891 73.3505C921.15 76.8052 906.59 101.745 915.242 124.147L927.975 157.002L927.976 157.003L931.641 166.523L931.641 166.523Z" stroke="url(#paint17_diamond_62_1129)" stroke-opacity="0.2" stroke-width="0.5"/>
<path d="M987.16 310.615C987.16 310.615 987.282 310.686 987.246 310.747L1113.06 635.211L1092.12 234.566L1092.05 233.703L1034.16 241.989C987.5 249.357 972.422 272.243 987.221 310.65L987.16 310.615Z" fill="url(#paint18_linear_62_1129)"/>
<path d="M987.188 310.566C972.444 272.209 987.534 249.351 1034.16 241.989L1091.8 233.739L987.188 310.566ZM987.188 310.566L987.285 310.399L987.285 310.399L987.188 310.566ZM987.451 310.552C987.461 310.567 987.47 310.585 987.478 310.604C987.487 310.625 987.495 310.65 987.499 310.676L987.708 311.221L987.695 311.213L1112.73 633.665L1091.87 234.586L1091.87 234.579L1091.82 233.988L1034.2 242.236C1034.2 242.236 1034.2 242.236 1034.2 242.237C1010.89 245.917 995.544 253.463 987.85 264.82C980.165 276.164 980.068 291.388 987.451 310.552ZM1092.12 234.566L1092.07 233.953L1113.02 634.411L1092.12 234.566ZM987.349 311.013L1112.77 634.464L987.349 311.013Z" stroke="url(#paint19_diamond_62_1129)" stroke-opacity="0.3" stroke-width="0.5"/>
<path d="M1310.92 111.187L1437.23 184.11L1034.14 241.879C987.42 249.212 972.367 272.195 987.287 310.673L964.541 252.045L960.491 241.644L949.846 214.139L954.153 225.241C939.293 186.798 954.214 163.904 1000.66 156.493L1001.01 156.448L1312.44 112.072L1310.91 111.189L1310.92 111.187Z" fill="url(#paint20_linear_62_1129)"/>
<path d="M1436.48 183.965L1312.4 112.33L1001.04 156.696L1001.04 156.696L1000.7 156.74C1000.69 156.74 1000.69 156.74 1000.69 156.74C977.496 160.442 962.243 168.002 954.624 179.369C947.012 190.727 946.97 205.965 954.386 225.151C954.386 225.151 954.386 225.151 954.386 225.151L954.377 225.155L960.724 241.554L960.724 241.554L964.774 251.954L964.774 251.954L983.863 301.156C979.813 286.285 980.93 274.036 987.391 264.456C995.188 252.898 1010.72 245.302 1034.1 241.632L1034.1 241.632L1436.48 183.965Z" stroke="url(#paint21_diamond_62_1129)" stroke-opacity="0.24" stroke-width="0.5"/>
<path d="M1312.44 112.071L1186.14 39.1486L944.855 73.1031C920.955 76.5809 906.299 101.685 915.008 124.237L927.742 157.093L931.408 166.613L954.155 225.241C939.295 186.798 954.216 163.903 1000.66 156.492L1001.01 156.448L1312.44 112.071Z" fill="url(#paint22_linear_62_1129)"/>
<path d="M931.641 166.523L950.76 215.8C946.701 200.917 947.79 188.67 954.211 179.09C961.947 167.548 977.374 159.955 1000.62 156.245L1000.62 156.245L1000.63 156.244L1000.97 156.2L1000.98 156.2L1311.69 111.926L1186.09 39.4082L944.891 73.3505C921.15 76.8052 906.59 101.745 915.242 124.147L927.975 157.002L927.976 157.003L931.641 166.523L931.641 166.523Z" stroke="url(#paint23_diamond_62_1129)" stroke-opacity="0.2" stroke-width="0.5"/>
</g>
<defs>
<linearGradient id="paint0_linear_62_1129" x1="14.889" y1="355.058" x2="216.301" y2="290.389" gradientUnits="userSpaceOnUse">
<stop stop-color="white" stop-opacity="0"/>
<stop offset="1" stop-color="white"/>
</linearGradient>
<radialGradient id="paint1_diamond_62_1129" cx="0" cy="0" r="1" gradientUnits="userSpaceOnUse" gradientTransform="translate(96.5701 394.405) rotate(94.3354) scale(153.687 156.731)">
<stop stop-color="white" stop-opacity="0.5"/>
<stop offset="1" stop-color="white" stop-opacity="0"/>
</radialGradient>
<linearGradient id="paint2_linear_62_1129" x1="-111.99" y1="178.903" x2="176.45" y2="113.992" gradientUnits="userSpaceOnUse">
<stop stop-color="white" stop-opacity="0"/>
<stop offset="1" stop-color="white"/>
</linearGradient>
<radialGradient id="paint3_diamond_62_1129" cx="0" cy="0" r="1" gradientUnits="userSpaceOnUse" gradientTransform="translate(73.4805 155.943) rotate(-172.021) scale(229.601 230.116)">
<stop stop-color="white" stop-opacity="0.5"/>
<stop offset="1" stop-color="white" stop-opacity="0"/>
</radialGradient>
<linearGradient id="paint4_linear_62_1129" x1="-7.81875" y1="107.272" x2="233.579" y2="53.709" gradientUnits="userSpaceOnUse">
<stop stop-color="white" stop-opacity="0"/>
<stop offset="1" stop-color="white"/>
</linearGradient>
<radialGradient id="paint5_diamond_62_1129" cx="0" cy="0" r="1" gradientUnits="userSpaceOnUse" gradientTransform="translate(171.039 61.5322) rotate(-170.986) scale(212.401 212.401)">
<stop offset="0.0712031" stop-color="white" stop-opacity="0.5"/>
<stop offset="1" stop-color="white" stop-opacity="0"/>
</radialGradient>
<linearGradient id="paint6_linear_62_1129" x1="14.889" y1="355.058" x2="216.301" y2="290.389" gradientUnits="userSpaceOnUse">
<stop stop-color="white" stop-opacity="0"/>
<stop offset="1" stop-color="white"/>
</linearGradient>
<radialGradient id="paint7_diamond_62_1129" cx="0" cy="0" r="1" gradientUnits="userSpaceOnUse" gradientTransform="translate(96.5701 394.405) rotate(94.3354) scale(153.687 156.731)">
<stop stop-color="white" stop-opacity="0.5"/>
<stop offset="1" stop-color="white" stop-opacity="0"/>
</radialGradient>
<linearGradient id="paint8_linear_62_1129" x1="-111.99" y1="178.903" x2="176.45" y2="113.992" gradientUnits="userSpaceOnUse">
<stop stop-color="white" stop-opacity="0"/>
<stop offset="1" stop-color="white"/>
</linearGradient>
<radialGradient id="paint9_diamond_62_1129" cx="0" cy="0" r="1" gradientUnits="userSpaceOnUse" gradientTransform="translate(73.4805 155.943) rotate(-172.021) scale(229.601 230.116)">
<stop stop-color="white" stop-opacity="0.5"/>
<stop offset="1" stop-color="white" stop-opacity="0"/>
</radialGradient>
<linearGradient id="paint10_linear_62_1129" x1="-7.81875" y1="107.272" x2="233.579" y2="53.709" gradientUnits="userSpaceOnUse">
<stop stop-color="white" stop-opacity="0"/>
<stop offset="1" stop-color="white"/>
</linearGradient>
<radialGradient id="paint11_diamond_62_1129" cx="0" cy="0" r="1" gradientUnits="userSpaceOnUse" gradientTransform="translate(171.039 61.5322) rotate(-170.986) scale(212.401 212.401)">
<stop offset="0.0712031" stop-color="white" stop-opacity="0.5"/>
<stop offset="1" stop-color="white" stop-opacity="0"/>
</radialGradient>
<linearGradient id="paint12_linear_62_1129" x1="1185.34" y1="355.058" x2="983.929" y2="290.389" gradientUnits="userSpaceOnUse">
<stop stop-color="white" stop-opacity="0"/>
<stop offset="1" stop-color="white"/>
</linearGradient>
<radialGradient id="paint13_diamond_62_1129" cx="0" cy="0" r="1" gradientUnits="userSpaceOnUse" gradientTransform="translate(1103.66 394.405) rotate(85.6646) scale(153.687 156.731)">
<stop stop-color="white" stop-opacity="0.5"/>
<stop offset="1" stop-color="white" stop-opacity="0"/>
</radialGradient>
<linearGradient id="paint14_linear_62_1129" x1="1312.22" y1="178.903" x2="1023.78" y2="113.992" gradientUnits="userSpaceOnUse">
<stop stop-color="white" stop-opacity="0"/>
<stop offset="1" stop-color="white"/>
</linearGradient>
<radialGradient id="paint15_diamond_62_1129" cx="0" cy="0" r="1" gradientUnits="userSpaceOnUse" gradientTransform="translate(1126.75 155.943) rotate(-7.97922) scale(229.601 230.116)">
<stop stop-color="white" stop-opacity="0.5"/>
<stop offset="1" stop-color="white" stop-opacity="0"/>
</radialGradient>
<linearGradient id="paint16_linear_62_1129" x1="1208.05" y1="107.272" x2="966.651" y2="53.709" gradientUnits="userSpaceOnUse">
<stop stop-color="white" stop-opacity="0"/>
<stop offset="1" stop-color="white"/>
</linearGradient>
<radialGradient id="paint17_diamond_62_1129" cx="0" cy="0" r="1" gradientUnits="userSpaceOnUse" gradientTransform="translate(1029.19 61.5322) rotate(-9.01428) scale(212.401 212.401)">
<stop offset="0.0712031" stop-color="white" stop-opacity="0.5"/>
<stop offset="1" stop-color="white" stop-opacity="0"/>
</radialGradient>
<linearGradient id="paint18_linear_62_1129" x1="1185.34" y1="355.058" x2="983.929" y2="290.389" gradientUnits="userSpaceOnUse">
<stop stop-color="white" stop-opacity="0"/>
<stop offset="1" stop-color="white"/>
</linearGradient>
<radialGradient id="paint19_diamond_62_1129" cx="0" cy="0" r="1" gradientUnits="userSpaceOnUse" gradientTransform="translate(1103.66 394.405) rotate(85.6646) scale(153.687 156.731)">
<stop stop-color="white" stop-opacity="0.5"/>
<stop offset="1" stop-color="white" stop-opacity="0"/>
</radialGradient>
<linearGradient id="paint20_linear_62_1129" x1="1312.22" y1="178.903" x2="1023.78" y2="113.992" gradientUnits="userSpaceOnUse">
<stop stop-color="white" stop-opacity="0"/>
<stop offset="1" stop-color="white"/>
</linearGradient>
<radialGradient id="paint21_diamond_62_1129" cx="0" cy="0" r="1" gradientUnits="userSpaceOnUse" gradientTransform="translate(1126.75 155.943) rotate(-7.97922) scale(229.601 230.116)">
<stop stop-color="white" stop-opacity="0.5"/>
<stop offset="1" stop-color="white" stop-opacity="0"/>
</radialGradient>
<linearGradient id="paint22_linear_62_1129" x1="1208.05" y1="107.272" x2="966.651" y2="53.709" gradientUnits="userSpaceOnUse">
<stop stop-color="white" stop-opacity="0"/>
<stop offset="1" stop-color="white"/>
</linearGradient>
<radialGradient id="paint23_diamond_62_1129" cx="0" cy="0" r="1" gradientUnits="userSpaceOnUse" gradientTransform="translate(1029.19 61.5322) rotate(-9.01428) scale(212.401 212.401)">
<stop offset="0.0712031" stop-color="white" stop-opacity="0.5"/>
<stop offset="1" stop-color="white" stop-opacity="0"/>
</radialGradient>
</defs>
</svg>
