<svg width="8" height="9" viewBox="0 0 8 9" fill="none" xmlns="http://www.w3.org/2000/svg">
<path d="M2.00164 4.40247C1.68386 4.40252 1.41029 4.62685 1.34798 4.93847L1.01466 6.60506C0.975491 6.80091 1.02619 7.004 1.15282 7.15846C1.27945 7.31292 1.46865 7.40247 1.66838 7.40247H6.33459C6.53432 7.40247 6.72353 7.31292 6.85016 7.15846C6.97678 7.004 7.02748 6.80091 6.98832 6.60506L6.65498 4.93847C6.59267 4.62686 6.31911 4.40253 6.00133 4.40247" stroke="#9DA4AE" stroke-width="0.5" stroke-linecap="round" stroke-linejoin="round"/>
<path d="M2.83374 6.06913H5.16707" stroke="#9DA4AE" stroke-width="0.5" stroke-linecap="round" stroke-linejoin="round"/>
<path fill-rule="evenodd" clip-rule="evenodd" d="M2.50073 2.90247V2.90247C2.50073 2.07404 3.17231 1.40247 4.00073 1.40247V1.40247C4.82916 1.40247 5.50073 2.07404 5.50073 2.90247V2.90247C5.50073 3.56469 4.75402 4.2715 4.31395 4.63044C4.12854 4.77098 3.87225 4.77091 3.68692 4.63028C3.24723 4.27129 2.50073 3.56459 2.50073 2.90247Z" stroke="#9DA4AE" stroke-width="0.5" stroke-linecap="round" stroke-linejoin="round"/>
<path d="M4.00009 2.81881C3.95411 2.81898 3.91696 2.85637 3.91707 2.90235C3.91719 2.94833 3.95453 2.98553 4.00051 2.98548C4.04649 2.98542 4.08374 2.94812 4.08374 2.90214C4.08386 2.87995 4.07507 2.85864 4.05935 2.84297C4.04363 2.82731 4.02228 2.81861 4.00009 2.81881" stroke="#9DA4AE" stroke-width="0.5" stroke-linecap="round" stroke-linejoin="round"/>
</svg>
