<svg width="78" height="22" viewBox="0 0 78 22" fill="none" xmlns="http://www.w3.org/2000/svg">
<path d="M0 21.1294V1.15869H3.43158V21.1294H0Z" fill="white"/>
<path d="M19.9962 18.2322C20.39 18.2603 20.9525 18.2322 21.5151 18.1759V21.0449C20.8119 21.1012 20.1087 21.1293 19.518 21.1293C15.8052 21.1293 13.8081 19.2448 13.8081 15.7007V3.38074H17.2397V7.34675H21.4307V10.1033H17.2397V15.5882C17.2397 17.3602 17.8304 18.2322 19.9962 18.2322Z" fill="white"/>
<path d="M35.8791 14.1817V14.8849H26.0063C26.2595 17.1352 27.5815 18.4009 29.5504 18.4009C31.6037 18.4009 32.3632 17.3321 32.5882 16.4882H35.8229C35.3447 18.9072 33.432 21.1293 29.4098 21.1293C25.1906 21.1293 22.631 18.204 22.631 14.1255C22.631 9.96258 25.5 7.06543 29.4379 7.06543C33.5164 7.06543 35.8791 9.8782 35.8791 14.1817ZM29.466 9.70944C27.7502 9.70944 26.4282 10.7502 26.0626 12.7754H32.6163C32.335 10.6658 31.1818 9.70944 29.466 9.70944Z" fill="white"/>
<path d="M51.8036 21.1294L50.3129 16.7414H42.2683L40.7776 21.1294H37.3179L44.2935 1.83374H48.2877L55.2634 21.1294H51.8036ZM43.2528 13.9287H49.3284L46.2906 5.0403L43.2528 13.9287Z" fill="white"/>
<path d="M64.9483 1.83374C69.0268 1.83374 71.699 3.91519 71.699 7.76869C71.699 11.5941 69.0268 13.788 64.9483 13.788H60.6729V21.1294H57.2413V1.83374H64.9483ZM64.9483 10.919C67.086 10.919 68.2111 9.59699 68.2111 7.79682C68.2111 6.02477 67.086 4.70277 64.9483 4.70277H60.6729V10.919H64.9483Z" fill="white"/>
<path d="M74.1487 21.1294V1.83374H77.5803V21.1294H74.1487Z" fill="white"/>
<path d="M6.60791 21.1294V7.3468H10.0395V21.1294H6.60791Z" fill="white"/>
<path d="M8.32368 4.97269C9.47736 4.97269 10.3747 4.12583 10.3747 2.90847C10.3747 1.74405 9.47736 0.870728 8.32368 0.870728C7.17001 0.870728 6.27271 1.74405 6.27271 2.90847C6.27271 4.12583 7.17001 4.97269 8.32368 4.97269Z" fill="white"/>
</svg>
