<svg width="78" height="22" viewBox="0 0 78 22" fill="none" xmlns="http://www.w3.org/2000/svg">
<path d="M0 21.1291V1.15845H3.43158V21.1291H0Z" fill="#19172C"/>
<path d="M19.9957 18.2321C20.3895 18.2602 20.9521 18.2321 21.5146 18.1758V21.0448C20.8114 21.1011 20.1082 21.1292 19.5175 21.1292C15.8047 21.1292 13.8076 19.2447 13.8076 15.7006V3.38062H17.2392V7.34663H21.4302V10.1031H17.2392V15.588C17.2392 17.3601 17.8299 18.2321 19.9957 18.2321Z" fill="#19172C"/>
<path d="M35.879 14.1817V14.8849H26.0062C26.2593 17.1352 27.5813 18.4009 29.5503 18.4009C31.6036 18.4009 32.3631 17.3321 32.5881 16.4882H35.8228C35.3446 18.9072 33.4319 21.1293 29.4096 21.1293C25.1905 21.1293 22.6309 18.204 22.6309 14.1255C22.6309 9.96258 25.4999 7.06543 29.4378 7.06543C33.5163 7.06543 35.879 9.8782 35.879 14.1817ZM29.4659 9.70944C27.7501 9.70944 26.4281 10.7502 26.0624 12.7754H32.6162C32.3349 10.6658 31.1817 9.70944 29.4659 9.70944Z" fill="#19172C"/>
<path d="M51.8032 21.1294L50.3124 16.7414H42.2679L40.7771 21.1294H37.3174L44.2931 1.83374H48.2872L55.2629 21.1294H51.8032ZM43.2523 13.9287H49.3279L46.2901 5.0403L43.2523 13.9287Z" fill="#19172C"/>
<path d="M64.9478 1.83374C69.0263 1.83374 71.6985 3.91519 71.6985 7.76869C71.6985 11.5941 69.0263 13.788 64.9478 13.788H60.6724V21.1294H57.2408V1.83374H64.9478ZM64.9478 10.919C67.0855 10.919 68.2106 9.59699 68.2106 7.79682C68.2106 6.02477 67.0855 4.70277 64.9478 4.70277H60.6724V10.919H64.9478Z" fill="#19172C"/>
<path d="M74.1482 21.1294V1.83374H77.5798V21.1294H74.1482Z" fill="#19172C"/>
<path d="M6.60742 21.1293V7.34668H10.039V21.1293H6.60742Z" fill="#19172C"/>
<path d="M8.32344 4.97256C9.47712 4.97256 10.3744 4.12571 10.3744 2.90835C10.3744 1.74393 9.47712 0.870605 8.32344 0.870605C7.16976 0.870605 6.27246 1.74393 6.27246 2.90835C6.27246 4.12571 7.16976 4.97256 8.32344 4.97256Z" fill="#19172C"/>
</svg>
