<svg width="5" height="4" viewBox="0 0 5 4" fill="none" xmlns="http://www.w3.org/2000/svg">
<path d="M1.84409 0.163524C1.93477 -0.0545084 2.24364 -0.054508 2.33432 0.163525L2.71688 1.08331C2.75511 1.17523 2.84156 1.23803 2.94079 1.24599L3.93377 1.32559C4.16916 1.34446 4.2646 1.63821 4.08526 1.79184L3.32871 2.4399C3.25311 2.50467 3.22009 2.60628 3.24319 2.70312L3.47433 3.6721C3.52912 3.9018 3.27924 4.08335 3.07772 3.96026L2.22758 3.441C2.14263 3.38911 2.03578 3.38911 1.95082 3.441L1.10069 3.96026C0.899168 4.08335 0.649289 3.9018 0.70408 3.6721L0.935219 2.70312C0.958317 2.60628 0.925299 2.50467 0.849695 2.4399L0.0931441 1.79184C-0.086194 1.63821 0.00925152 1.34446 0.244636 1.32559L1.23762 1.24599C1.33685 1.23803 1.4233 1.17523 1.46153 1.08331L1.84409 0.163524Z" fill="#FF862E"/>
</svg>
