<svg width="56" height="14" viewBox="0 0 56 14" fill="none" xmlns="http://www.w3.org/2000/svg">
<path fill-rule="evenodd" clip-rule="evenodd" d="M4.84812 9.16662C4.41953 9.16662 4.0085 8.99636 3.70544 8.6933C3.40238 8.39025 3.23212 7.97921 3.23212 7.55062V0.117004H0.000114441V7.55062C0.000114441 10.228 2.17073 12.3986 4.84812 12.3986H8.40333V9.16662H4.84812ZM14.5441 3.34901C14.1622 3.34901 13.7839 3.42425 13.431 3.57043C13.0781 3.71661 12.7574 3.93087 12.4873 4.20098C12.2172 4.47109 12.0029 4.79175 11.8568 5.14466C11.7106 5.49758 11.6353 5.87583 11.6353 6.25782C11.6353 6.63981 11.7106 7.01805 11.8568 7.37097C12.0029 7.72388 12.2172 8.04454 12.4873 8.31465C12.7574 8.58476 13.0781 8.79902 13.431 8.9452C13.7839 9.09138 14.1622 9.16662 14.5441 9.16662C15.3156 9.16662 16.0555 8.86016 16.601 8.31465C17.1465 7.76914 17.4529 7.02928 17.4529 6.25782C17.4529 5.48635 17.1465 4.74649 16.601 4.20098C16.0555 3.65547 15.3156 3.34901 14.5441 3.34901ZM8.40333 6.25782C8.40333 2.86647 11.1528 0.117004 14.5441 0.117004C17.9355 0.117004 20.685 2.86647 20.685 6.25782C20.685 9.64916 17.9355 12.3986 14.5441 12.3986C11.1528 12.3986 8.40333 9.64916 8.40333 6.25782ZM49.4498 3.34901C48.6783 3.34901 47.9385 3.65547 47.393 4.20098C46.8475 4.74649 46.541 5.48635 46.541 6.25782C46.541 7.02928 46.8475 7.76914 47.393 8.31465C47.9385 8.86016 48.6783 9.16662 49.4498 9.16662C50.2213 9.16662 50.9611 8.86016 51.5066 8.31465C52.0521 7.76914 52.3586 7.02928 52.3586 6.25782C52.3586 5.48635 52.0521 4.74649 51.5066 4.20098C50.9611 3.65547 50.2213 3.34901 49.4498 3.34901ZM43.309 6.25782C43.309 2.86647 46.0585 0.117004 49.4498 0.117004C52.8411 0.117004 55.5906 2.86647 55.5906 6.25782C55.5906 9.64916 52.8411 12.3986 49.4498 12.3986C46.0585 12.3986 43.309 9.64916 43.309 6.25782ZM27.4722 0.117004C24.0808 0.117004 21.3314 2.86647 21.3314 6.25782C21.3314 9.64916 24.0808 12.3986 27.4722 12.3986H36.5218C37.1582 12.3986 37.7719 12.3017 38.3492 12.122L40.077 13.045L41.9412 9.55317C42.4148 8.66426 42.6625 7.67255 42.6626 6.66537V6.25782C42.6626 2.86647 39.9131 0.117004 36.5218 0.117004H27.4722ZM39.4306 6.25782C39.4306 5.48635 39.1241 4.74649 38.5786 4.20098C38.0331 3.65547 37.2932 3.34901 36.5218 3.34901H27.4722C27.0902 3.34901 26.7119 3.42425 26.359 3.57043C26.0061 3.71661 25.6854 3.93087 25.4153 4.20098C25.1452 4.47109 24.931 4.79175 24.7848 5.14466C24.6386 5.49758 24.5634 5.87583 24.5634 6.25782C24.5634 6.63981 24.6386 7.01805 24.7848 7.37097C24.931 7.72388 25.1452 8.04454 25.4153 8.31465C25.6854 8.58476 26.0061 8.79902 26.359 8.9452C26.7119 9.09138 27.0902 9.16662 27.4722 9.16662H36.5218C37.2893 9.16664 38.0258 8.86329 38.5707 8.32267C39.1155 7.78204 39.4246 7.04798 39.4306 6.28044V6.25782Z" fill="#7B6DFF"/>
</svg>
